%TF.GenerationSoftware,KiCad,Pcbnew,9.0.7*%
%TF.CreationDate,2026-04-07T09:24:11+05:30*%
%TF.ProjectId,usb_uart_cp2102,7573625f-7561-4727-945f-637032313032,rev?*%
%TF.SameCoordinates,Original*%
%TF.FileFunction,Legend,Top*%
%TF.FilePolarity,Positive*%
%FSLAX46Y46*%
G04 Gerber Fmt 4.6, Leading zero omitted, Abs format (unit mm)*
G04 Created by KiCad (PCBNEW 9.0.7) date 2026-04-07 09:24:11*
%MOMM*%
%LPD*%
G01*
G04 APERTURE LIST*
%ADD10C,0.100000*%
%ADD11C,0.062500*%
%ADD12C,0.150000*%
%ADD13C,0.152400*%
%ADD14C,0.120000*%
G04 APERTURE END LIST*
D10*
X148198541Y-94326419D02*
X148150922Y-94302609D01*
X148150922Y-94302609D02*
X148079493Y-94302609D01*
X148079493Y-94302609D02*
X148008065Y-94326419D01*
X148008065Y-94326419D02*
X147960446Y-94374038D01*
X147960446Y-94374038D02*
X147936636Y-94421657D01*
X147936636Y-94421657D02*
X147912827Y-94516895D01*
X147912827Y-94516895D02*
X147912827Y-94588323D01*
X147912827Y-94588323D02*
X147936636Y-94683561D01*
X147936636Y-94683561D02*
X147960446Y-94731180D01*
X147960446Y-94731180D02*
X148008065Y-94778800D01*
X148008065Y-94778800D02*
X148079493Y-94802609D01*
X148079493Y-94802609D02*
X148127112Y-94802609D01*
X148127112Y-94802609D02*
X148198541Y-94778800D01*
X148198541Y-94778800D02*
X148222350Y-94754990D01*
X148222350Y-94754990D02*
X148222350Y-94588323D01*
X148222350Y-94588323D02*
X148127112Y-94588323D01*
X148436636Y-94802609D02*
X148436636Y-94302609D01*
X148436636Y-94302609D02*
X148722350Y-94802609D01*
X148722350Y-94802609D02*
X148722350Y-94302609D01*
X148960446Y-94802609D02*
X148960446Y-94302609D01*
X148960446Y-94302609D02*
X149079494Y-94302609D01*
X149079494Y-94302609D02*
X149150922Y-94326419D01*
X149150922Y-94326419D02*
X149198541Y-94374038D01*
X149198541Y-94374038D02*
X149222351Y-94421657D01*
X149222351Y-94421657D02*
X149246160Y-94516895D01*
X149246160Y-94516895D02*
X149246160Y-94588323D01*
X149246160Y-94588323D02*
X149222351Y-94683561D01*
X149222351Y-94683561D02*
X149198541Y-94731180D01*
X149198541Y-94731180D02*
X149150922Y-94778800D01*
X149150922Y-94778800D02*
X149079494Y-94802609D01*
X149079494Y-94802609D02*
X148960446Y-94802609D01*
D11*
X148502479Y-99884559D02*
X148335813Y-99646464D01*
X148216765Y-99884559D02*
X148216765Y-99384559D01*
X148216765Y-99384559D02*
X148407241Y-99384559D01*
X148407241Y-99384559D02*
X148454860Y-99408369D01*
X148454860Y-99408369D02*
X148478670Y-99432178D01*
X148478670Y-99432178D02*
X148502479Y-99479797D01*
X148502479Y-99479797D02*
X148502479Y-99551226D01*
X148502479Y-99551226D02*
X148478670Y-99598845D01*
X148478670Y-99598845D02*
X148454860Y-99622654D01*
X148454860Y-99622654D02*
X148407241Y-99646464D01*
X148407241Y-99646464D02*
X148216765Y-99646464D01*
X148669146Y-99384559D02*
X149002479Y-99884559D01*
X149002479Y-99384559D02*
X148669146Y-99884559D01*
X148196137Y-101822959D02*
X148481851Y-101822959D01*
X148338994Y-102322959D02*
X148338994Y-101822959D01*
X148600898Y-101822959D02*
X148934231Y-102322959D01*
X148934231Y-101822959D02*
X148600898Y-102322959D01*
X148096079Y-104405759D02*
X147929413Y-104167664D01*
X147810365Y-104405759D02*
X147810365Y-103905759D01*
X147810365Y-103905759D02*
X148000841Y-103905759D01*
X148000841Y-103905759D02*
X148048460Y-103929569D01*
X148048460Y-103929569D02*
X148072270Y-103953378D01*
X148072270Y-103953378D02*
X148096079Y-104000997D01*
X148096079Y-104000997D02*
X148096079Y-104072426D01*
X148096079Y-104072426D02*
X148072270Y-104120045D01*
X148072270Y-104120045D02*
X148048460Y-104143854D01*
X148048460Y-104143854D02*
X148000841Y-104167664D01*
X148000841Y-104167664D02*
X147810365Y-104167664D01*
X148286556Y-104381950D02*
X148357984Y-104405759D01*
X148357984Y-104405759D02*
X148477032Y-104405759D01*
X148477032Y-104405759D02*
X148524651Y-104381950D01*
X148524651Y-104381950D02*
X148548460Y-104358140D01*
X148548460Y-104358140D02*
X148572270Y-104310521D01*
X148572270Y-104310521D02*
X148572270Y-104262902D01*
X148572270Y-104262902D02*
X148548460Y-104215283D01*
X148548460Y-104215283D02*
X148524651Y-104191473D01*
X148524651Y-104191473D02*
X148477032Y-104167664D01*
X148477032Y-104167664D02*
X148381794Y-104143854D01*
X148381794Y-104143854D02*
X148334175Y-104120045D01*
X148334175Y-104120045D02*
X148310365Y-104096235D01*
X148310365Y-104096235D02*
X148286556Y-104048616D01*
X148286556Y-104048616D02*
X148286556Y-104000997D01*
X148286556Y-104000997D02*
X148310365Y-103953378D01*
X148310365Y-103953378D02*
X148334175Y-103929569D01*
X148334175Y-103929569D02*
X148381794Y-103905759D01*
X148381794Y-103905759D02*
X148500841Y-103905759D01*
X148500841Y-103905759D02*
X148572270Y-103929569D01*
X148715127Y-103905759D02*
X149000841Y-103905759D01*
X148857984Y-104405759D02*
X148857984Y-103905759D01*
D10*
X147865208Y-96436209D02*
X148031874Y-96936209D01*
X148031874Y-96936209D02*
X148198541Y-96436209D01*
X148650921Y-96888590D02*
X148627112Y-96912400D01*
X148627112Y-96912400D02*
X148555683Y-96936209D01*
X148555683Y-96936209D02*
X148508064Y-96936209D01*
X148508064Y-96936209D02*
X148436636Y-96912400D01*
X148436636Y-96912400D02*
X148389017Y-96864780D01*
X148389017Y-96864780D02*
X148365207Y-96817161D01*
X148365207Y-96817161D02*
X148341398Y-96721923D01*
X148341398Y-96721923D02*
X148341398Y-96650495D01*
X148341398Y-96650495D02*
X148365207Y-96555257D01*
X148365207Y-96555257D02*
X148389017Y-96507638D01*
X148389017Y-96507638D02*
X148436636Y-96460019D01*
X148436636Y-96460019D02*
X148508064Y-96436209D01*
X148508064Y-96436209D02*
X148555683Y-96436209D01*
X148555683Y-96436209D02*
X148627112Y-96460019D01*
X148627112Y-96460019D02*
X148650921Y-96483828D01*
X149150921Y-96888590D02*
X149127112Y-96912400D01*
X149127112Y-96912400D02*
X149055683Y-96936209D01*
X149055683Y-96936209D02*
X149008064Y-96936209D01*
X149008064Y-96936209D02*
X148936636Y-96912400D01*
X148936636Y-96912400D02*
X148889017Y-96864780D01*
X148889017Y-96864780D02*
X148865207Y-96817161D01*
X148865207Y-96817161D02*
X148841398Y-96721923D01*
X148841398Y-96721923D02*
X148841398Y-96650495D01*
X148841398Y-96650495D02*
X148865207Y-96555257D01*
X148865207Y-96555257D02*
X148889017Y-96507638D01*
X148889017Y-96507638D02*
X148936636Y-96460019D01*
X148936636Y-96460019D02*
X149008064Y-96436209D01*
X149008064Y-96436209D02*
X149055683Y-96436209D01*
X149055683Y-96436209D02*
X149127112Y-96460019D01*
X149127112Y-96460019D02*
X149150921Y-96483828D01*
D11*
X146576266Y-96214659D02*
X146409600Y-95976564D01*
X146290552Y-96214659D02*
X146290552Y-95714659D01*
X146290552Y-95714659D02*
X146481028Y-95714659D01*
X146481028Y-95714659D02*
X146528647Y-95738469D01*
X146528647Y-95738469D02*
X146552457Y-95762278D01*
X146552457Y-95762278D02*
X146576266Y-95809897D01*
X146576266Y-95809897D02*
X146576266Y-95881326D01*
X146576266Y-95881326D02*
X146552457Y-95928945D01*
X146552457Y-95928945D02*
X146528647Y-95952754D01*
X146528647Y-95952754D02*
X146481028Y-95976564D01*
X146481028Y-95976564D02*
X146290552Y-95976564D01*
X147004838Y-95714659D02*
X146909600Y-95714659D01*
X146909600Y-95714659D02*
X146861981Y-95738469D01*
X146861981Y-95738469D02*
X146838171Y-95762278D01*
X146838171Y-95762278D02*
X146790552Y-95833707D01*
X146790552Y-95833707D02*
X146766743Y-95928945D01*
X146766743Y-95928945D02*
X146766743Y-96119421D01*
X146766743Y-96119421D02*
X146790552Y-96167040D01*
X146790552Y-96167040D02*
X146814362Y-96190850D01*
X146814362Y-96190850D02*
X146861981Y-96214659D01*
X146861981Y-96214659D02*
X146957219Y-96214659D01*
X146957219Y-96214659D02*
X147004838Y-96190850D01*
X147004838Y-96190850D02*
X147028647Y-96167040D01*
X147028647Y-96167040D02*
X147052457Y-96119421D01*
X147052457Y-96119421D02*
X147052457Y-96000373D01*
X147052457Y-96000373D02*
X147028647Y-95952754D01*
X147028647Y-95952754D02*
X147004838Y-95928945D01*
X147004838Y-95928945D02*
X146957219Y-95905135D01*
X146957219Y-95905135D02*
X146861981Y-95905135D01*
X146861981Y-95905135D02*
X146814362Y-95928945D01*
X146814362Y-95928945D02*
X146790552Y-95952754D01*
X146790552Y-95952754D02*
X146766743Y-96000373D01*
X133292066Y-96954440D02*
X133268257Y-96978250D01*
X133268257Y-96978250D02*
X133196828Y-97002059D01*
X133196828Y-97002059D02*
X133149209Y-97002059D01*
X133149209Y-97002059D02*
X133077781Y-96978250D01*
X133077781Y-96978250D02*
X133030162Y-96930630D01*
X133030162Y-96930630D02*
X133006352Y-96883011D01*
X133006352Y-96883011D02*
X132982543Y-96787773D01*
X132982543Y-96787773D02*
X132982543Y-96716345D01*
X132982543Y-96716345D02*
X133006352Y-96621107D01*
X133006352Y-96621107D02*
X133030162Y-96573488D01*
X133030162Y-96573488D02*
X133077781Y-96525869D01*
X133077781Y-96525869D02*
X133149209Y-96502059D01*
X133149209Y-96502059D02*
X133196828Y-96502059D01*
X133196828Y-96502059D02*
X133268257Y-96525869D01*
X133268257Y-96525869D02*
X133292066Y-96549678D01*
X133720638Y-96668726D02*
X133720638Y-97002059D01*
X133601590Y-96478250D02*
X133482543Y-96835392D01*
X133482543Y-96835392D02*
X133792066Y-96835392D01*
X132726952Y-104368059D02*
X132726952Y-103868059D01*
X132726952Y-103868059D02*
X132846000Y-103868059D01*
X132846000Y-103868059D02*
X132917428Y-103891869D01*
X132917428Y-103891869D02*
X132965047Y-103939488D01*
X132965047Y-103939488D02*
X132988857Y-103987107D01*
X132988857Y-103987107D02*
X133012666Y-104082345D01*
X133012666Y-104082345D02*
X133012666Y-104153773D01*
X133012666Y-104153773D02*
X132988857Y-104249011D01*
X132988857Y-104249011D02*
X132965047Y-104296630D01*
X132965047Y-104296630D02*
X132917428Y-104344250D01*
X132917428Y-104344250D02*
X132846000Y-104368059D01*
X132846000Y-104368059D02*
X132726952Y-104368059D01*
X133179333Y-103868059D02*
X133488857Y-103868059D01*
X133488857Y-103868059D02*
X133322190Y-104058535D01*
X133322190Y-104058535D02*
X133393619Y-104058535D01*
X133393619Y-104058535D02*
X133441238Y-104082345D01*
X133441238Y-104082345D02*
X133465047Y-104106154D01*
X133465047Y-104106154D02*
X133488857Y-104153773D01*
X133488857Y-104153773D02*
X133488857Y-104272821D01*
X133488857Y-104272821D02*
X133465047Y-104320440D01*
X133465047Y-104320440D02*
X133441238Y-104344250D01*
X133441238Y-104344250D02*
X133393619Y-104368059D01*
X133393619Y-104368059D02*
X133250762Y-104368059D01*
X133250762Y-104368059D02*
X133203143Y-104344250D01*
X133203143Y-104344250D02*
X133179333Y-104320440D01*
D12*
X132042819Y-103885999D02*
X132280914Y-103885999D01*
X132185676Y-104124094D02*
X132280914Y-103885999D01*
X132280914Y-103885999D02*
X132185676Y-103647904D01*
X132471390Y-104028856D02*
X132280914Y-103885999D01*
X132280914Y-103885999D02*
X132471390Y-103743142D01*
X132042819Y-103885999D02*
X132280914Y-103885999D01*
X132185676Y-104124094D02*
X132280914Y-103885999D01*
X132280914Y-103885999D02*
X132185676Y-103647904D01*
X132471390Y-104028856D02*
X132280914Y-103885999D01*
X132280914Y-103885999D02*
X132471390Y-103743142D01*
D11*
X128382733Y-93555659D02*
X128382733Y-93912802D01*
X128382733Y-93912802D02*
X128358924Y-93984230D01*
X128358924Y-93984230D02*
X128311305Y-94031850D01*
X128311305Y-94031850D02*
X128239876Y-94055659D01*
X128239876Y-94055659D02*
X128192257Y-94055659D01*
X128882733Y-94055659D02*
X128597019Y-94055659D01*
X128739876Y-94055659D02*
X128739876Y-93555659D01*
X128739876Y-93555659D02*
X128692257Y-93627088D01*
X128692257Y-93627088D02*
X128644638Y-93674707D01*
X128644638Y-93674707D02*
X128597019Y-93698516D01*
X131742666Y-97002059D02*
X131576000Y-96763964D01*
X131456952Y-97002059D02*
X131456952Y-96502059D01*
X131456952Y-96502059D02*
X131647428Y-96502059D01*
X131647428Y-96502059D02*
X131695047Y-96525869D01*
X131695047Y-96525869D02*
X131718857Y-96549678D01*
X131718857Y-96549678D02*
X131742666Y-96597297D01*
X131742666Y-96597297D02*
X131742666Y-96668726D01*
X131742666Y-96668726D02*
X131718857Y-96716345D01*
X131718857Y-96716345D02*
X131695047Y-96740154D01*
X131695047Y-96740154D02*
X131647428Y-96763964D01*
X131647428Y-96763964D02*
X131456952Y-96763964D01*
X131933143Y-96549678D02*
X131956952Y-96525869D01*
X131956952Y-96525869D02*
X132004571Y-96502059D01*
X132004571Y-96502059D02*
X132123619Y-96502059D01*
X132123619Y-96502059D02*
X132171238Y-96525869D01*
X132171238Y-96525869D02*
X132195047Y-96549678D01*
X132195047Y-96549678D02*
X132218857Y-96597297D01*
X132218857Y-96597297D02*
X132218857Y-96644916D01*
X132218857Y-96644916D02*
X132195047Y-96716345D01*
X132195047Y-96716345D02*
X131909333Y-97002059D01*
X131909333Y-97002059D02*
X132218857Y-97002059D01*
X141274847Y-95714659D02*
X141274847Y-96119421D01*
X141274847Y-96119421D02*
X141298657Y-96167040D01*
X141298657Y-96167040D02*
X141322466Y-96190850D01*
X141322466Y-96190850D02*
X141370085Y-96214659D01*
X141370085Y-96214659D02*
X141465323Y-96214659D01*
X141465323Y-96214659D02*
X141512942Y-96190850D01*
X141512942Y-96190850D02*
X141536752Y-96167040D01*
X141536752Y-96167040D02*
X141560561Y-96119421D01*
X141560561Y-96119421D02*
X141560561Y-95714659D01*
X142060562Y-96214659D02*
X141774848Y-96214659D01*
X141917705Y-96214659D02*
X141917705Y-95714659D01*
X141917705Y-95714659D02*
X141870086Y-95786088D01*
X141870086Y-95786088D02*
X141822467Y-95833707D01*
X141822467Y-95833707D02*
X141774848Y-95857516D01*
X146474666Y-104825259D02*
X146308000Y-104587164D01*
X146188952Y-104825259D02*
X146188952Y-104325259D01*
X146188952Y-104325259D02*
X146379428Y-104325259D01*
X146379428Y-104325259D02*
X146427047Y-104349069D01*
X146427047Y-104349069D02*
X146450857Y-104372878D01*
X146450857Y-104372878D02*
X146474666Y-104420497D01*
X146474666Y-104420497D02*
X146474666Y-104491926D01*
X146474666Y-104491926D02*
X146450857Y-104539545D01*
X146450857Y-104539545D02*
X146427047Y-104563354D01*
X146427047Y-104563354D02*
X146379428Y-104587164D01*
X146379428Y-104587164D02*
X146188952Y-104587164D01*
X146927047Y-104325259D02*
X146688952Y-104325259D01*
X146688952Y-104325259D02*
X146665143Y-104563354D01*
X146665143Y-104563354D02*
X146688952Y-104539545D01*
X146688952Y-104539545D02*
X146736571Y-104515735D01*
X146736571Y-104515735D02*
X146855619Y-104515735D01*
X146855619Y-104515735D02*
X146903238Y-104539545D01*
X146903238Y-104539545D02*
X146927047Y-104563354D01*
X146927047Y-104563354D02*
X146950857Y-104610973D01*
X146950857Y-104610973D02*
X146950857Y-104730021D01*
X146950857Y-104730021D02*
X146927047Y-104777640D01*
X146927047Y-104777640D02*
X146903238Y-104801450D01*
X146903238Y-104801450D02*
X146855619Y-104825259D01*
X146855619Y-104825259D02*
X146736571Y-104825259D01*
X146736571Y-104825259D02*
X146688952Y-104801450D01*
X146688952Y-104801450D02*
X146665143Y-104777640D01*
X146239752Y-97687859D02*
X146239752Y-97187859D01*
X146239752Y-97187859D02*
X146358800Y-97187859D01*
X146358800Y-97187859D02*
X146430228Y-97211669D01*
X146430228Y-97211669D02*
X146477847Y-97259288D01*
X146477847Y-97259288D02*
X146501657Y-97306907D01*
X146501657Y-97306907D02*
X146525466Y-97402145D01*
X146525466Y-97402145D02*
X146525466Y-97473573D01*
X146525466Y-97473573D02*
X146501657Y-97568811D01*
X146501657Y-97568811D02*
X146477847Y-97616430D01*
X146477847Y-97616430D02*
X146430228Y-97664050D01*
X146430228Y-97664050D02*
X146358800Y-97687859D01*
X146358800Y-97687859D02*
X146239752Y-97687859D01*
X146715943Y-97235478D02*
X146739752Y-97211669D01*
X146739752Y-97211669D02*
X146787371Y-97187859D01*
X146787371Y-97187859D02*
X146906419Y-97187859D01*
X146906419Y-97187859D02*
X146954038Y-97211669D01*
X146954038Y-97211669D02*
X146977847Y-97235478D01*
X146977847Y-97235478D02*
X147001657Y-97283097D01*
X147001657Y-97283097D02*
X147001657Y-97330716D01*
X147001657Y-97330716D02*
X146977847Y-97402145D01*
X146977847Y-97402145D02*
X146692133Y-97687859D01*
X146692133Y-97687859D02*
X147001657Y-97687859D01*
X132809466Y-98681640D02*
X132785657Y-98705450D01*
X132785657Y-98705450D02*
X132714228Y-98729259D01*
X132714228Y-98729259D02*
X132666609Y-98729259D01*
X132666609Y-98729259D02*
X132595181Y-98705450D01*
X132595181Y-98705450D02*
X132547562Y-98657830D01*
X132547562Y-98657830D02*
X132523752Y-98610211D01*
X132523752Y-98610211D02*
X132499943Y-98514973D01*
X132499943Y-98514973D02*
X132499943Y-98443545D01*
X132499943Y-98443545D02*
X132523752Y-98348307D01*
X132523752Y-98348307D02*
X132547562Y-98300688D01*
X132547562Y-98300688D02*
X132595181Y-98253069D01*
X132595181Y-98253069D02*
X132666609Y-98229259D01*
X132666609Y-98229259D02*
X132714228Y-98229259D01*
X132714228Y-98229259D02*
X132785657Y-98253069D01*
X132785657Y-98253069D02*
X132809466Y-98276878D01*
X133285657Y-98729259D02*
X132999943Y-98729259D01*
X133142800Y-98729259D02*
X133142800Y-98229259D01*
X133142800Y-98229259D02*
X133095181Y-98300688D01*
X133095181Y-98300688D02*
X133047562Y-98348307D01*
X133047562Y-98348307D02*
X132999943Y-98372116D01*
X148372533Y-92031659D02*
X148372533Y-92388802D01*
X148372533Y-92388802D02*
X148348724Y-92460230D01*
X148348724Y-92460230D02*
X148301105Y-92507850D01*
X148301105Y-92507850D02*
X148229676Y-92531659D01*
X148229676Y-92531659D02*
X148182057Y-92531659D01*
X148586819Y-92079278D02*
X148610628Y-92055469D01*
X148610628Y-92055469D02*
X148658247Y-92031659D01*
X148658247Y-92031659D02*
X148777295Y-92031659D01*
X148777295Y-92031659D02*
X148824914Y-92055469D01*
X148824914Y-92055469D02*
X148848723Y-92079278D01*
X148848723Y-92079278D02*
X148872533Y-92126897D01*
X148872533Y-92126897D02*
X148872533Y-92174516D01*
X148872533Y-92174516D02*
X148848723Y-92245945D01*
X148848723Y-92245945D02*
X148563009Y-92531659D01*
X148563009Y-92531659D02*
X148872533Y-92531659D01*
X146265152Y-94411259D02*
X146265152Y-93911259D01*
X146265152Y-93911259D02*
X146384200Y-93911259D01*
X146384200Y-93911259D02*
X146455628Y-93935069D01*
X146455628Y-93935069D02*
X146503247Y-93982688D01*
X146503247Y-93982688D02*
X146527057Y-94030307D01*
X146527057Y-94030307D02*
X146550866Y-94125545D01*
X146550866Y-94125545D02*
X146550866Y-94196973D01*
X146550866Y-94196973D02*
X146527057Y-94292211D01*
X146527057Y-94292211D02*
X146503247Y-94339830D01*
X146503247Y-94339830D02*
X146455628Y-94387450D01*
X146455628Y-94387450D02*
X146384200Y-94411259D01*
X146384200Y-94411259D02*
X146265152Y-94411259D01*
X147027057Y-94411259D02*
X146741343Y-94411259D01*
X146884200Y-94411259D02*
X146884200Y-93911259D01*
X146884200Y-93911259D02*
X146836581Y-93982688D01*
X146836581Y-93982688D02*
X146788962Y-94030307D01*
X146788962Y-94030307D02*
X146741343Y-94054116D01*
X146627066Y-99288059D02*
X146460400Y-99049964D01*
X146341352Y-99288059D02*
X146341352Y-98788059D01*
X146341352Y-98788059D02*
X146531828Y-98788059D01*
X146531828Y-98788059D02*
X146579447Y-98811869D01*
X146579447Y-98811869D02*
X146603257Y-98835678D01*
X146603257Y-98835678D02*
X146627066Y-98883297D01*
X146627066Y-98883297D02*
X146627066Y-98954726D01*
X146627066Y-98954726D02*
X146603257Y-99002345D01*
X146603257Y-99002345D02*
X146579447Y-99026154D01*
X146579447Y-99026154D02*
X146531828Y-99049964D01*
X146531828Y-99049964D02*
X146341352Y-99049964D01*
X146793733Y-98788059D02*
X147127066Y-98788059D01*
X147127066Y-98788059D02*
X146912781Y-99288059D01*
X140226266Y-104418859D02*
X140059600Y-104180764D01*
X139940552Y-104418859D02*
X139940552Y-103918859D01*
X139940552Y-103918859D02*
X140131028Y-103918859D01*
X140131028Y-103918859D02*
X140178647Y-103942669D01*
X140178647Y-103942669D02*
X140202457Y-103966478D01*
X140202457Y-103966478D02*
X140226266Y-104014097D01*
X140226266Y-104014097D02*
X140226266Y-104085526D01*
X140226266Y-104085526D02*
X140202457Y-104133145D01*
X140202457Y-104133145D02*
X140178647Y-104156954D01*
X140178647Y-104156954D02*
X140131028Y-104180764D01*
X140131028Y-104180764D02*
X139940552Y-104180764D01*
X140392933Y-103918859D02*
X140702457Y-103918859D01*
X140702457Y-103918859D02*
X140535790Y-104109335D01*
X140535790Y-104109335D02*
X140607219Y-104109335D01*
X140607219Y-104109335D02*
X140654838Y-104133145D01*
X140654838Y-104133145D02*
X140678647Y-104156954D01*
X140678647Y-104156954D02*
X140702457Y-104204573D01*
X140702457Y-104204573D02*
X140702457Y-104323621D01*
X140702457Y-104323621D02*
X140678647Y-104371240D01*
X140678647Y-104371240D02*
X140654838Y-104395050D01*
X140654838Y-104395050D02*
X140607219Y-104418859D01*
X140607219Y-104418859D02*
X140464362Y-104418859D01*
X140464362Y-104418859D02*
X140416743Y-104395050D01*
X140416743Y-104395050D02*
X140392933Y-104371240D01*
X130269466Y-96976659D02*
X130102800Y-96738564D01*
X129983752Y-96976659D02*
X129983752Y-96476659D01*
X129983752Y-96476659D02*
X130174228Y-96476659D01*
X130174228Y-96476659D02*
X130221847Y-96500469D01*
X130221847Y-96500469D02*
X130245657Y-96524278D01*
X130245657Y-96524278D02*
X130269466Y-96571897D01*
X130269466Y-96571897D02*
X130269466Y-96643326D01*
X130269466Y-96643326D02*
X130245657Y-96690945D01*
X130245657Y-96690945D02*
X130221847Y-96714754D01*
X130221847Y-96714754D02*
X130174228Y-96738564D01*
X130174228Y-96738564D02*
X129983752Y-96738564D01*
X130745657Y-96976659D02*
X130459943Y-96976659D01*
X130602800Y-96976659D02*
X130602800Y-96476659D01*
X130602800Y-96476659D02*
X130555181Y-96548088D01*
X130555181Y-96548088D02*
X130507562Y-96595707D01*
X130507562Y-96595707D02*
X130459943Y-96619516D01*
X146373066Y-101650259D02*
X146206400Y-101412164D01*
X146087352Y-101650259D02*
X146087352Y-101150259D01*
X146087352Y-101150259D02*
X146277828Y-101150259D01*
X146277828Y-101150259D02*
X146325447Y-101174069D01*
X146325447Y-101174069D02*
X146349257Y-101197878D01*
X146349257Y-101197878D02*
X146373066Y-101245497D01*
X146373066Y-101245497D02*
X146373066Y-101316926D01*
X146373066Y-101316926D02*
X146349257Y-101364545D01*
X146349257Y-101364545D02*
X146325447Y-101388354D01*
X146325447Y-101388354D02*
X146277828Y-101412164D01*
X146277828Y-101412164D02*
X146087352Y-101412164D01*
X146801638Y-101316926D02*
X146801638Y-101650259D01*
X146682590Y-101126450D02*
X146563543Y-101483592D01*
X146563543Y-101483592D02*
X146873066Y-101483592D01*
X130440952Y-104368059D02*
X130440952Y-103868059D01*
X130440952Y-103868059D02*
X130560000Y-103868059D01*
X130560000Y-103868059D02*
X130631428Y-103891869D01*
X130631428Y-103891869D02*
X130679047Y-103939488D01*
X130679047Y-103939488D02*
X130702857Y-103987107D01*
X130702857Y-103987107D02*
X130726666Y-104082345D01*
X130726666Y-104082345D02*
X130726666Y-104153773D01*
X130726666Y-104153773D02*
X130702857Y-104249011D01*
X130702857Y-104249011D02*
X130679047Y-104296630D01*
X130679047Y-104296630D02*
X130631428Y-104344250D01*
X130631428Y-104344250D02*
X130560000Y-104368059D01*
X130560000Y-104368059D02*
X130440952Y-104368059D01*
X131179047Y-103868059D02*
X130940952Y-103868059D01*
X130940952Y-103868059D02*
X130917143Y-104106154D01*
X130917143Y-104106154D02*
X130940952Y-104082345D01*
X130940952Y-104082345D02*
X130988571Y-104058535D01*
X130988571Y-104058535D02*
X131107619Y-104058535D01*
X131107619Y-104058535D02*
X131155238Y-104082345D01*
X131155238Y-104082345D02*
X131179047Y-104106154D01*
X131179047Y-104106154D02*
X131202857Y-104153773D01*
X131202857Y-104153773D02*
X131202857Y-104272821D01*
X131202857Y-104272821D02*
X131179047Y-104320440D01*
X131179047Y-104320440D02*
X131155238Y-104344250D01*
X131155238Y-104344250D02*
X131107619Y-104368059D01*
X131107619Y-104368059D02*
X130988571Y-104368059D01*
X130988571Y-104368059D02*
X130940952Y-104344250D01*
X130940952Y-104344250D02*
X130917143Y-104320440D01*
D12*
X129629819Y-103758999D02*
X129867914Y-103758999D01*
X129772676Y-103997094D02*
X129867914Y-103758999D01*
X129867914Y-103758999D02*
X129772676Y-103520904D01*
X130058390Y-103901856D02*
X129867914Y-103758999D01*
X129867914Y-103758999D02*
X130058390Y-103616142D01*
X129629819Y-103758999D02*
X129867914Y-103758999D01*
X129772676Y-103997094D02*
X129867914Y-103758999D01*
X129867914Y-103758999D02*
X129772676Y-103520904D01*
X130058390Y-103901856D02*
X129867914Y-103758999D01*
X129867914Y-103758999D02*
X130058390Y-103616142D01*
D11*
X135038352Y-104241059D02*
X135038352Y-103741059D01*
X135038352Y-103741059D02*
X135157400Y-103741059D01*
X135157400Y-103741059D02*
X135228828Y-103764869D01*
X135228828Y-103764869D02*
X135276447Y-103812488D01*
X135276447Y-103812488D02*
X135300257Y-103860107D01*
X135300257Y-103860107D02*
X135324066Y-103955345D01*
X135324066Y-103955345D02*
X135324066Y-104026773D01*
X135324066Y-104026773D02*
X135300257Y-104122011D01*
X135300257Y-104122011D02*
X135276447Y-104169630D01*
X135276447Y-104169630D02*
X135228828Y-104217250D01*
X135228828Y-104217250D02*
X135157400Y-104241059D01*
X135157400Y-104241059D02*
X135038352Y-104241059D01*
X135752638Y-103907726D02*
X135752638Y-104241059D01*
X135633590Y-103717250D02*
X135514543Y-104074392D01*
X135514543Y-104074392D02*
X135824066Y-104074392D01*
D12*
X134455819Y-103885999D02*
X134693914Y-103885999D01*
X134598676Y-104124094D02*
X134693914Y-103885999D01*
X134693914Y-103885999D02*
X134598676Y-103647904D01*
X134884390Y-104028856D02*
X134693914Y-103885999D01*
X134693914Y-103885999D02*
X134884390Y-103743142D01*
X134455819Y-103885999D02*
X134693914Y-103885999D01*
X134598676Y-104124094D02*
X134693914Y-103885999D01*
X134693914Y-103885999D02*
X134598676Y-103647904D01*
X134884390Y-104028856D02*
X134693914Y-103885999D01*
X134693914Y-103885999D02*
X134884390Y-103743142D01*
D11*
X139337266Y-94922440D02*
X139313457Y-94946250D01*
X139313457Y-94946250D02*
X139242028Y-94970059D01*
X139242028Y-94970059D02*
X139194409Y-94970059D01*
X139194409Y-94970059D02*
X139122981Y-94946250D01*
X139122981Y-94946250D02*
X139075362Y-94898630D01*
X139075362Y-94898630D02*
X139051552Y-94851011D01*
X139051552Y-94851011D02*
X139027743Y-94755773D01*
X139027743Y-94755773D02*
X139027743Y-94684345D01*
X139027743Y-94684345D02*
X139051552Y-94589107D01*
X139051552Y-94589107D02*
X139075362Y-94541488D01*
X139075362Y-94541488D02*
X139122981Y-94493869D01*
X139122981Y-94493869D02*
X139194409Y-94470059D01*
X139194409Y-94470059D02*
X139242028Y-94470059D01*
X139242028Y-94470059D02*
X139313457Y-94493869D01*
X139313457Y-94493869D02*
X139337266Y-94517678D01*
X139527743Y-94517678D02*
X139551552Y-94493869D01*
X139551552Y-94493869D02*
X139599171Y-94470059D01*
X139599171Y-94470059D02*
X139718219Y-94470059D01*
X139718219Y-94470059D02*
X139765838Y-94493869D01*
X139765838Y-94493869D02*
X139789647Y-94517678D01*
X139789647Y-94517678D02*
X139813457Y-94565297D01*
X139813457Y-94565297D02*
X139813457Y-94612916D01*
X139813457Y-94612916D02*
X139789647Y-94684345D01*
X139789647Y-94684345D02*
X139503933Y-94970059D01*
X139503933Y-94970059D02*
X139813457Y-94970059D01*
X134816066Y-96954440D02*
X134792257Y-96978250D01*
X134792257Y-96978250D02*
X134720828Y-97002059D01*
X134720828Y-97002059D02*
X134673209Y-97002059D01*
X134673209Y-97002059D02*
X134601781Y-96978250D01*
X134601781Y-96978250D02*
X134554162Y-96930630D01*
X134554162Y-96930630D02*
X134530352Y-96883011D01*
X134530352Y-96883011D02*
X134506543Y-96787773D01*
X134506543Y-96787773D02*
X134506543Y-96716345D01*
X134506543Y-96716345D02*
X134530352Y-96621107D01*
X134530352Y-96621107D02*
X134554162Y-96573488D01*
X134554162Y-96573488D02*
X134601781Y-96525869D01*
X134601781Y-96525869D02*
X134673209Y-96502059D01*
X134673209Y-96502059D02*
X134720828Y-96502059D01*
X134720828Y-96502059D02*
X134792257Y-96525869D01*
X134792257Y-96525869D02*
X134816066Y-96549678D01*
X134982733Y-96502059D02*
X135292257Y-96502059D01*
X135292257Y-96502059D02*
X135125590Y-96692535D01*
X135125590Y-96692535D02*
X135197019Y-96692535D01*
X135197019Y-96692535D02*
X135244638Y-96716345D01*
X135244638Y-96716345D02*
X135268447Y-96740154D01*
X135268447Y-96740154D02*
X135292257Y-96787773D01*
X135292257Y-96787773D02*
X135292257Y-96906821D01*
X135292257Y-96906821D02*
X135268447Y-96954440D01*
X135268447Y-96954440D02*
X135244638Y-96978250D01*
X135244638Y-96978250D02*
X135197019Y-97002059D01*
X135197019Y-97002059D02*
X135054162Y-97002059D01*
X135054162Y-97002059D02*
X135006543Y-96978250D01*
X135006543Y-96978250D02*
X134982733Y-96954440D01*
D13*
%TO.C,D3*%
X132524500Y-101460300D02*
X132524500Y-103009700D01*
X133667500Y-103009700D02*
X133667500Y-101460300D01*
D14*
%TO.C,J1*%
X119798000Y-94920000D02*
X119798000Y-104320000D01*
X121698000Y-94920000D02*
X119798000Y-94920000D01*
X121698000Y-104320000D02*
X119798000Y-104320000D01*
X125598000Y-94920000D02*
X123598000Y-94920000D01*
X125598000Y-104320000D02*
X123598000Y-104320000D01*
%TO.C,U1*%
X139122000Y-96831000D02*
X139847000Y-96831000D01*
X139122000Y-97556000D02*
X139122000Y-96831000D01*
X139122000Y-102051000D02*
X139122000Y-101326000D01*
X139847000Y-102051000D02*
X139122000Y-102051000D01*
X143617000Y-96831000D02*
X144342000Y-96831000D01*
X144342000Y-96831000D02*
X144342000Y-97556000D01*
X144342000Y-101326000D02*
X144342000Y-102051000D01*
X144342000Y-102051000D02*
X143617000Y-102051000D01*
X138622000Y-97941000D02*
X138292000Y-98181000D01*
X138292000Y-97701000D01*
X138622000Y-97941000D01*
G36*
X138622000Y-97941000D02*
G01*
X138292000Y-98181000D01*
X138292000Y-97701000D01*
X138622000Y-97941000D01*
G37*
D10*
%TO.C,D2*%
X145748000Y-98044000D02*
G75*
G02*
X145648000Y-98044000I-50000J0D01*
G01*
X145648000Y-98044000D02*
G75*
G02*
X145748000Y-98044000I50000J0D01*
G01*
D14*
%TO.C,J2*%
X149539000Y-93091000D02*
X150809000Y-93091000D01*
X149539000Y-94361000D02*
X149539000Y-93091000D01*
X151886358Y-96471000D02*
X152199000Y-96471000D01*
X151886358Y-97331000D02*
X152199000Y-97331000D01*
X151886358Y-99011000D02*
X152199000Y-99011000D01*
X151886358Y-99871000D02*
X152199000Y-99871000D01*
X151886358Y-101551000D02*
X152199000Y-101551000D01*
X151886358Y-102411000D02*
X152199000Y-102411000D01*
X151886358Y-104091000D02*
X152199000Y-104091000D01*
X151886358Y-104951000D02*
X152199000Y-104951000D01*
X151969000Y-93931000D02*
X152199000Y-93931000D01*
X151969000Y-94791000D02*
X152199000Y-94791000D01*
X152199000Y-95631000D02*
X154959000Y-95631000D01*
X152199000Y-98171000D02*
X154959000Y-98171000D01*
X152199000Y-100711000D02*
X154959000Y-100711000D01*
X152199000Y-103251000D02*
X154959000Y-103251000D01*
X154959000Y-96471000D02*
X160959000Y-96471000D01*
X154959000Y-99011000D02*
X160959000Y-99011000D01*
X154959000Y-101551000D02*
X160959000Y-101551000D01*
X154959000Y-104091000D02*
X160959000Y-104091000D01*
X160959000Y-96471000D02*
X160959000Y-97331000D01*
X160959000Y-97331000D02*
X154959000Y-97331000D01*
X160959000Y-99011000D02*
X160959000Y-99871000D01*
X160959000Y-99871000D02*
X154959000Y-99871000D01*
X160959000Y-101551000D02*
X160959000Y-102411000D01*
X160959000Y-102411000D02*
X154959000Y-102411000D01*
X160959000Y-104091000D02*
X160959000Y-104951000D01*
X160959000Y-104951000D02*
X154959000Y-104951000D01*
X152199000Y-92981000D02*
X154959000Y-92981000D01*
X154959000Y-105901000D01*
X152199000Y-105901000D01*
X152199000Y-92981000D01*
X154959000Y-93931000D02*
X160959000Y-93931000D01*
X160959000Y-94791000D01*
X154959000Y-94791000D01*
X154959000Y-93931000D01*
G36*
X154959000Y-93931000D02*
G01*
X160959000Y-93931000D01*
X160959000Y-94791000D01*
X154959000Y-94791000D01*
X154959000Y-93931000D01*
G37*
D10*
%TO.C,D1*%
X145875000Y-94869000D02*
G75*
G02*
X145775000Y-94869000I-50000J0D01*
G01*
X145775000Y-94869000D02*
G75*
G02*
X145875000Y-94869000I50000J0D01*
G01*
D13*
%TO.C,D5*%
X130238500Y-101460300D02*
X130238500Y-103009700D01*
X131381500Y-103009700D02*
X131381500Y-101460300D01*
%TO.C,D4*%
X134810500Y-101460300D02*
X134810500Y-103009700D01*
X135953500Y-103009700D02*
X135953500Y-101460300D01*
%TD*%
M02*
