%TF.GenerationSoftware,KiCad,Pcbnew,9.0.7*%
%TF.CreationDate,2026-04-07T09:24:11+05:30*%
%TF.ProjectId,usb_uart_cp2102,7573625f-7561-4727-945f-637032313032,rev?*%
%TF.SameCoordinates,Original*%
%TF.FileFunction,Soldermask,Top*%
%TF.FilePolarity,Negative*%
%FSLAX46Y46*%
G04 Gerber Fmt 4.6, Leading zero omitted, Abs format (unit mm)*
G04 Created by KiCad (PCBNEW 9.0.7) date 2026-04-07 09:24:11*
%MOMM*%
%LPD*%
G01*
G04 APERTURE LIST*
G04 Aperture macros list*
%AMRoundRect*
0 Rectangle with rounded corners*
0 $1 Rounding radius*
0 $2 $3 $4 $5 $6 $7 $8 $9 X,Y pos of 4 corners*
0 Add a 4 corners polygon primitive as box body*
4,1,4,$2,$3,$4,$5,$6,$7,$8,$9,$2,$3,0*
0 Add four circle primitives for the rounded corners*
1,1,$1+$1,$2,$3*
1,1,$1+$1,$4,$5*
1,1,$1+$1,$6,$7*
1,1,$1+$1,$8,$9*
0 Add four rect primitives between the rounded corners*
20,1,$1+$1,$2,$3,$4,$5,0*
20,1,$1+$1,$4,$5,$6,$7,0*
20,1,$1+$1,$6,$7,$8,$9,0*
20,1,$1+$1,$8,$9,$2,$3,0*%
G04 Aperture macros list end*
%ADD10RoundRect,0.100000X0.130000X0.100000X-0.130000X0.100000X-0.130000X-0.100000X0.130000X-0.100000X0*%
%ADD11RoundRect,0.100000X0.100000X-0.130000X0.100000X0.130000X-0.100000X0.130000X-0.100000X-0.130000X0*%
%ADD12R,0.355600X0.406400*%
%ADD13C,0.650000*%
%ADD14R,1.450000X0.600000*%
%ADD15R,1.450000X0.300000*%
%ADD16O,2.100000X1.000000*%
%ADD17O,1.600000X1.000000*%
%ADD18RoundRect,0.062500X-0.337500X-0.062500X0.337500X-0.062500X0.337500X0.062500X-0.337500X0.062500X0*%
%ADD19RoundRect,0.062500X-0.062500X-0.337500X0.062500X-0.337500X0.062500X0.337500X-0.062500X0.337500X0*%
%ADD20R,3.350000X3.350000*%
%ADD21RoundRect,0.100000X-0.130000X-0.100000X0.130000X-0.100000X0.130000X0.100000X-0.130000X0.100000X0*%
%ADD22R,1.700000X1.700000*%
%ADD23C,1.700000*%
G04 APERTURE END LIST*
D10*
%TO.C,R6*%
X147005000Y-96647000D03*
X146365000Y-96647000D03*
%TD*%
D11*
%TO.C,C4*%
X133350000Y-98110000D03*
X133350000Y-97470000D03*
%TD*%
D12*
%TO.C,D3*%
X133096000Y-103085900D03*
X133096000Y-101384100D03*
%TD*%
D13*
%TO.C,J1*%
X126298000Y-96730000D03*
X126298000Y-102510000D03*
D14*
X127743000Y-96370000D03*
X127743000Y-97170000D03*
D15*
X127743000Y-98370000D03*
X127743000Y-99370000D03*
X127743000Y-99870000D03*
X127743000Y-100870000D03*
D14*
X127743000Y-102070000D03*
X127743000Y-102870000D03*
X127743000Y-102870000D03*
X127743000Y-102070000D03*
D15*
X127743000Y-101370000D03*
X127743000Y-100370000D03*
X127743000Y-98870000D03*
X127743000Y-97870000D03*
D14*
X127743000Y-97170000D03*
X127743000Y-96370000D03*
D16*
X126828000Y-95300000D03*
D17*
X122648000Y-95300000D03*
D16*
X126828000Y-103940000D03*
D17*
X122648000Y-103940000D03*
%TD*%
D11*
%TO.C,R2*%
X131826000Y-98110000D03*
X131826000Y-97470000D03*
%TD*%
D18*
%TO.C,U1*%
X139282000Y-97941000D03*
X139282000Y-98441000D03*
X139282000Y-98941000D03*
X139282000Y-99441000D03*
X139282000Y-99941000D03*
X139282000Y-100441000D03*
X139282000Y-100941000D03*
D19*
X140232000Y-101891000D03*
X140732000Y-101891000D03*
X141232000Y-101891000D03*
X141732000Y-101891000D03*
X142232000Y-101891000D03*
X142732000Y-101891000D03*
X143232000Y-101891000D03*
D18*
X144182000Y-100941000D03*
X144182000Y-100441000D03*
X144182000Y-99941000D03*
X144182000Y-99441000D03*
X144182000Y-98941000D03*
X144182000Y-98441000D03*
X144182000Y-97941000D03*
D19*
X143232000Y-96991000D03*
X142732000Y-96991000D03*
X142232000Y-96991000D03*
X141732000Y-96991000D03*
X141232000Y-96991000D03*
X140732000Y-96991000D03*
X140232000Y-96991000D03*
D20*
X141732000Y-99441000D03*
%TD*%
D10*
%TO.C,R5*%
X146878000Y-103886000D03*
X146238000Y-103886000D03*
%TD*%
D21*
%TO.C,D2*%
X146238000Y-98044000D03*
X146878000Y-98044000D03*
%TD*%
%TO.C,C1*%
X132522000Y-99085400D03*
X133162000Y-99085400D03*
%TD*%
D22*
%TO.C,J2*%
X150809000Y-94361000D03*
D23*
X150809000Y-96901000D03*
X150809000Y-99441000D03*
X150809000Y-101981000D03*
X150809000Y-104521000D03*
%TD*%
D21*
%TO.C,D1*%
X146365000Y-94869000D03*
X147005000Y-94869000D03*
%TD*%
D10*
%TO.C,R7*%
X147005000Y-99695000D03*
X146365000Y-99695000D03*
%TD*%
D21*
%TO.C,R3*%
X140015000Y-103505000D03*
X140655000Y-103505000D03*
%TD*%
D11*
%TO.C,R1*%
X130302000Y-98110000D03*
X130302000Y-97470000D03*
%TD*%
D10*
%TO.C,R4*%
X146878000Y-101981000D03*
X146238000Y-101981000D03*
%TD*%
D12*
%TO.C,D5*%
X130810000Y-103085900D03*
X130810000Y-101384100D03*
%TD*%
%TO.C,D4*%
X135382000Y-103085900D03*
X135382000Y-101384100D03*
%TD*%
D11*
%TO.C,C2*%
X140208000Y-95062000D03*
X140208000Y-94422000D03*
%TD*%
%TO.C,C3*%
X134874000Y-98110000D03*
X134874000Y-97470000D03*
%TD*%
M02*
