M48
; DRILL file {KiCad 9.0.7} date 2026-04-07T09:25:58+0530
; FORMAT={-:-/ absolute / metric / decimal}
; #@! TF.CreationDate,2026-04-07T09:25:58+05:30
; #@! TF.GenerationSoftware,Kicad,Pcbnew,9.0.7
; #@! TF.FileFunction,Plated,1,2,PTH
FMAT,2
METRIC
; #@! TA.AperFunction,Plated,PTH,ViaDrill
T1C0.300
; #@! TA.AperFunction,Plated,PTH,ComponentDrill
T2C0.600
; #@! TA.AperFunction,Plated,PTH,ComponentDrill
T3C1.000
%
G90
G05
T1
X125.622Y-99.695
X129.181Y-100.784
X131.445Y-98.781
X131.953Y-103.086
X132.461Y-97.47
X133.528Y-100.051
X133.858Y-99.085
X134.479Y-100.85
X135.89Y-98.171
X138.024Y-100.584
X139.319Y-102.743
X140.589Y-98.941
X141.351Y-94.488
X141.732Y-99.441
X141.732Y-99.441
X141.732Y-99.441
X141.732Y-99.441
X141.732Y-99.441
X141.732Y-99.441
X141.732Y-99.441
X141.732Y-99.441
X145.288Y-98.044
X145.288Y-103.886
X145.415Y-94.869
X147.828Y-102.87
X148.59Y-104.521
T3
X150.809Y-94.361
X150.809Y-96.901
X150.809Y-99.441
X150.809Y-101.981
X150.809Y-104.521
T2
G00X122.948Y-95.3
M15
G01X122.348Y-95.3
M16
G05
G00X122.948Y-103.94
M15
G01X122.348Y-103.94
M16
G05
G00X127.378Y-95.3
M15
G01X126.278Y-95.3
M16
G05
G00X127.378Y-103.94
M15
G01X126.278Y-103.94
M16
G05
M30
