%TF.GenerationSoftware,KiCad,Pcbnew,9.0.7*%
%TF.CreationDate,2026-04-07T09:24:11+05:30*%
%TF.ProjectId,usb_uart_cp2102,7573625f-7561-4727-945f-637032313032,rev?*%
%TF.SameCoordinates,Original*%
%TF.FileFunction,Copper,L1,Top*%
%TF.FilePolarity,Positive*%
%FSLAX46Y46*%
G04 Gerber Fmt 4.6, Leading zero omitted, Abs format (unit mm)*
G04 Created by KiCad (PCBNEW 9.0.7) date 2026-04-07 09:24:11*
%MOMM*%
%LPD*%
G01*
G04 APERTURE LIST*
G04 Aperture macros list*
%AMRoundRect*
0 Rectangle with rounded corners*
0 $1 Rounding radius*
0 $2 $3 $4 $5 $6 $7 $8 $9 X,Y pos of 4 corners*
0 Add a 4 corners polygon primitive as box body*
4,1,4,$2,$3,$4,$5,$6,$7,$8,$9,$2,$3,0*
0 Add four circle primitives for the rounded corners*
1,1,$1+$1,$2,$3*
1,1,$1+$1,$4,$5*
1,1,$1+$1,$6,$7*
1,1,$1+$1,$8,$9*
0 Add four rect primitives between the rounded corners*
20,1,$1+$1,$2,$3,$4,$5,0*
20,1,$1+$1,$4,$5,$6,$7,0*
20,1,$1+$1,$6,$7,$8,$9,0*
20,1,$1+$1,$8,$9,$2,$3,0*%
G04 Aperture macros list end*
%TA.AperFunction,SMDPad,CuDef*%
%ADD10RoundRect,0.100000X0.130000X0.100000X-0.130000X0.100000X-0.130000X-0.100000X0.130000X-0.100000X0*%
%TD*%
%TA.AperFunction,SMDPad,CuDef*%
%ADD11RoundRect,0.100000X0.100000X-0.130000X0.100000X0.130000X-0.100000X0.130000X-0.100000X-0.130000X0*%
%TD*%
%TA.AperFunction,SMDPad,CuDef*%
%ADD12R,0.355600X0.406400*%
%TD*%
%TA.AperFunction,SMDPad,CuDef*%
%ADD13R,1.450000X0.600000*%
%TD*%
%TA.AperFunction,SMDPad,CuDef*%
%ADD14R,1.450000X0.300000*%
%TD*%
%TA.AperFunction,HeatsinkPad*%
%ADD15O,2.100000X1.000000*%
%TD*%
%TA.AperFunction,HeatsinkPad*%
%ADD16O,1.600000X1.000000*%
%TD*%
%TA.AperFunction,SMDPad,CuDef*%
%ADD17RoundRect,0.062500X-0.337500X-0.062500X0.337500X-0.062500X0.337500X0.062500X-0.337500X0.062500X0*%
%TD*%
%TA.AperFunction,SMDPad,CuDef*%
%ADD18RoundRect,0.062500X-0.062500X-0.337500X0.062500X-0.337500X0.062500X0.337500X-0.062500X0.337500X0*%
%TD*%
%TA.AperFunction,HeatsinkPad*%
%ADD19R,3.350000X3.350000*%
%TD*%
%TA.AperFunction,SMDPad,CuDef*%
%ADD20RoundRect,0.100000X-0.130000X-0.100000X0.130000X-0.100000X0.130000X0.100000X-0.130000X0.100000X0*%
%TD*%
%TA.AperFunction,ComponentPad*%
%ADD21R,1.700000X1.700000*%
%TD*%
%TA.AperFunction,ComponentPad*%
%ADD22C,1.700000*%
%TD*%
%TA.AperFunction,ViaPad*%
%ADD23C,0.600000*%
%TD*%
%TA.AperFunction,Conductor*%
%ADD24C,0.200000*%
%TD*%
G04 APERTURE END LIST*
D10*
%TO.P,R6,1*%
%TO.N,/VBUS*%
X147005000Y-96647000D03*
%TO.P,R6,2*%
%TO.N,Net-(D1-A)*%
X146365000Y-96647000D03*
%TD*%
D11*
%TO.P,C4,1*%
%TO.N,/VBUS*%
X133350000Y-98110000D03*
%TO.P,C4,2*%
%TO.N,GND*%
X133350000Y-97470000D03*
%TD*%
D12*
%TO.P,D3,1*%
%TO.N,GND*%
X133096000Y-103085900D03*
%TO.P,D3,2*%
%TO.N,/D+*%
X133096000Y-101384100D03*
%TD*%
D13*
%TO.P,J1,A1,GND*%
%TO.N,GND*%
X127743000Y-96370000D03*
%TO.P,J1,A4,VBUS*%
%TO.N,/VBUS*%
X127743000Y-97170000D03*
D14*
%TO.P,J1,A5,CC1*%
%TO.N,Net-(J1-CC1)*%
X127743000Y-98370000D03*
%TO.P,J1,A6,D+*%
%TO.N,/D+*%
X127743000Y-99370000D03*
%TO.P,J1,A7,D-*%
%TO.N,/D-*%
X127743000Y-99870000D03*
%TO.P,J1,A8,SBU1*%
%TO.N,unconnected-(J1-SBU1-PadA8)*%
X127743000Y-100870000D03*
D13*
%TO.P,J1,A9,VBUS*%
%TO.N,/VBUS*%
X127743000Y-102070000D03*
%TO.P,J1,A12,GND*%
%TO.N,GND*%
X127743000Y-102870000D03*
%TO.P,J1,B1,GND*%
X127743000Y-102870000D03*
%TO.P,J1,B4,VBUS*%
%TO.N,/VBUS*%
X127743000Y-102070000D03*
D14*
%TO.P,J1,B5,CC2*%
%TO.N,Net-(J1-CC2)*%
X127743000Y-101370000D03*
%TO.P,J1,B6,D+*%
%TO.N,/D+*%
X127743000Y-100370000D03*
%TO.P,J1,B7,D-*%
%TO.N,/D-*%
X127743000Y-98870000D03*
%TO.P,J1,B8,SBU2*%
%TO.N,unconnected-(J1-SBU2-PadB8)*%
X127743000Y-97870000D03*
D13*
%TO.P,J1,B9,VBUS*%
%TO.N,/VBUS*%
X127743000Y-97170000D03*
%TO.P,J1,B12,GND*%
%TO.N,GND*%
X127743000Y-96370000D03*
D15*
%TO.P,J1,S1,SHIELD*%
X126828000Y-95300000D03*
D16*
X122648000Y-95300000D03*
D15*
X126828000Y-103940000D03*
D16*
X122648000Y-103940000D03*
%TD*%
D11*
%TO.P,R2,1*%
%TO.N,Net-(J1-CC2)*%
X131826000Y-98110000D03*
%TO.P,R2,2*%
%TO.N,GND*%
X131826000Y-97470000D03*
%TD*%
D17*
%TO.P,U1,1,~{DCD}*%
%TO.N,unconnected-(U1-~{DCD}-Pad1)*%
X139282000Y-97941000D03*
%TO.P,U1,2,~{RI}/CLK*%
%TO.N,unconnected-(U1-~{RI}{slash}CLK-Pad2)*%
X139282000Y-98441000D03*
%TO.P,U1,3,GND*%
%TO.N,GND*%
X139282000Y-98941000D03*
%TO.P,U1,4,D+*%
%TO.N,/D+*%
X139282000Y-99441000D03*
%TO.P,U1,5,D-*%
%TO.N,/D-*%
X139282000Y-99941000D03*
%TO.P,U1,6,VDD*%
%TO.N,Net-(U1-VDD)*%
X139282000Y-100441000D03*
%TO.P,U1,7,VREGIN*%
%TO.N,/VBUS*%
X139282000Y-100941000D03*
D18*
%TO.P,U1,8,VBUS*%
X140232000Y-101891000D03*
%TO.P,U1,9,~{RST}*%
%TO.N,Net-(U1-~{RST})*%
X140732000Y-101891000D03*
%TO.P,U1,10,NC*%
%TO.N,unconnected-(U1-NC-Pad10)*%
X141232000Y-101891000D03*
%TO.P,U1,11,~{SUSPEND}*%
%TO.N,unconnected-(U1-~{SUSPEND}-Pad11)*%
X141732000Y-101891000D03*
%TO.P,U1,12,SUSPEND*%
%TO.N,unconnected-(U1-SUSPEND-Pad12)*%
X142232000Y-101891000D03*
%TO.P,U1,13,CHREN*%
%TO.N,unconnected-(U1-CHREN-Pad13)*%
X142732000Y-101891000D03*
%TO.P,U1,14,CHR1*%
%TO.N,unconnected-(U1-CHR1-Pad14)*%
X143232000Y-101891000D03*
D17*
%TO.P,U1,15,CHR0*%
%TO.N,unconnected-(U1-CHR0-Pad15)*%
X144182000Y-100941000D03*
%TO.P,U1,16,~{WAKEUP}/GPIO.3*%
%TO.N,unconnected-(U1-~{WAKEUP}{slash}GPIO.3-Pad16)*%
X144182000Y-100441000D03*
%TO.P,U1,17,RS485/GPIO.2*%
%TO.N,unconnected-(U1-RS485{slash}GPIO.2-Pad17)*%
X144182000Y-99941000D03*
%TO.P,U1,18,~{RXT}/GPIO.1*%
%TO.N,unconnected-(U1-~{RXT}{slash}GPIO.1-Pad18)*%
X144182000Y-99441000D03*
%TO.P,U1,19,~{TXT}/GPIO.0*%
%TO.N,unconnected-(U1-~{TXT}{slash}GPIO.0-Pad19)*%
X144182000Y-98941000D03*
%TO.P,U1,20,GPIO.6*%
%TO.N,unconnected-(U1-GPIO.6-Pad20)*%
X144182000Y-98441000D03*
%TO.P,U1,21,GPIO.5*%
%TO.N,unconnected-(U1-GPIO.5-Pad21)*%
X144182000Y-97941000D03*
D18*
%TO.P,U1,22,GPIO.4*%
%TO.N,unconnected-(U1-GPIO.4-Pad22)*%
X143232000Y-96991000D03*
%TO.P,U1,23,~{CTS}*%
%TO.N,unconnected-(U1-~{CTS}-Pad23)*%
X142732000Y-96991000D03*
%TO.P,U1,24,~{RTS}*%
%TO.N,unconnected-(U1-~{RTS}-Pad24)*%
X142232000Y-96991000D03*
%TO.P,U1,25,RXD*%
%TO.N,Net-(D2-K)*%
X141732000Y-96991000D03*
%TO.P,U1,26,TXD*%
%TO.N,Net-(D1-K)*%
X141232000Y-96991000D03*
%TO.P,U1,27,~{DSR}*%
%TO.N,unconnected-(U1-~{DSR}-Pad27)*%
X140732000Y-96991000D03*
%TO.P,U1,28,~{DTR}*%
%TO.N,Net-(U1-~{DTR})*%
X140232000Y-96991000D03*
D19*
%TO.P,U1,29,GND*%
%TO.N,GND*%
X141732000Y-99441000D03*
%TD*%
D10*
%TO.P,R5,1*%
%TO.N,/RX*%
X146878000Y-103886000D03*
%TO.P,R5,2*%
%TO.N,Net-(D2-K)*%
X146238000Y-103886000D03*
%TD*%
D20*
%TO.P,D2,1,K*%
%TO.N,Net-(D2-K)*%
X146238000Y-98044000D03*
%TO.P,D2,2,A*%
%TO.N,Net-(D2-A)*%
X146878000Y-98044000D03*
%TD*%
%TO.P,C1,1*%
%TO.N,GND*%
X132522000Y-99085400D03*
%TO.P,C1,2*%
%TO.N,Net-(U1-VDD)*%
X133162000Y-99085400D03*
%TD*%
D21*
%TO.P,J2,1,Pin_1*%
%TO.N,GND*%
X150809000Y-94361000D03*
D22*
%TO.P,J2,2,Pin_2*%
%TO.N,/VBUS*%
X150809000Y-96901000D03*
%TO.P,J2,3,Pin_3*%
%TO.N,/RX*%
X150809000Y-99441000D03*
%TO.P,J2,4,Pin_4*%
%TO.N,/TX*%
X150809000Y-101981000D03*
%TO.P,J2,5,Pin_5*%
%TO.N,/RST*%
X150809000Y-104521000D03*
%TD*%
D20*
%TO.P,D1,1,K*%
%TO.N,Net-(D1-K)*%
X146365000Y-94869000D03*
%TO.P,D1,2,A*%
%TO.N,Net-(D1-A)*%
X147005000Y-94869000D03*
%TD*%
D10*
%TO.P,R7,1*%
%TO.N,/VBUS*%
X147005000Y-99695000D03*
%TO.P,R7,2*%
%TO.N,Net-(D2-A)*%
X146365000Y-99695000D03*
%TD*%
D20*
%TO.P,R3,1*%
%TO.N,/VBUS*%
X140015000Y-103505000D03*
%TO.P,R3,2*%
%TO.N,Net-(U1-~{RST})*%
X140655000Y-103505000D03*
%TD*%
D11*
%TO.P,R1,1*%
%TO.N,Net-(J1-CC1)*%
X130302000Y-98110000D03*
%TO.P,R1,2*%
%TO.N,GND*%
X130302000Y-97470000D03*
%TD*%
D10*
%TO.P,R4,1*%
%TO.N,/TX*%
X146878000Y-101981000D03*
%TO.P,R4,2*%
%TO.N,Net-(D1-K)*%
X146238000Y-101981000D03*
%TD*%
D12*
%TO.P,D5,1*%
%TO.N,GND*%
X130810000Y-103085900D03*
%TO.P,D5,2*%
%TO.N,/VBUS*%
X130810000Y-101384100D03*
%TD*%
%TO.P,D4,1*%
%TO.N,GND*%
X135382000Y-103085900D03*
%TO.P,D4,2*%
%TO.N,/D-*%
X135382000Y-101384100D03*
%TD*%
D11*
%TO.P,C2,1*%
%TO.N,Net-(U1-~{DTR})*%
X140208000Y-95062000D03*
%TO.P,C2,2*%
%TO.N,/RST*%
X140208000Y-94422000D03*
%TD*%
%TO.P,C3,1*%
%TO.N,/VBUS*%
X134874000Y-98110000D03*
%TO.P,C3,2*%
%TO.N,GND*%
X134874000Y-97470000D03*
%TD*%
D23*
%TO.N,GND*%
X141732000Y-99441000D03*
X140589000Y-98941000D03*
X141732000Y-99441000D03*
X141732000Y-99441000D03*
X141732000Y-99441000D03*
X131953000Y-103085900D03*
X141732000Y-99441000D03*
X141732000Y-99441000D03*
X141732000Y-99441000D03*
X132461000Y-97470000D03*
X141732000Y-99441000D03*
%TO.N,Net-(U1-VDD)*%
X138023600Y-100584000D03*
X133858000Y-99085400D03*
%TO.N,/RST*%
X148590000Y-104521000D03*
X141351000Y-94488000D03*
%TO.N,/VBUS*%
X139319000Y-102743000D03*
X135890000Y-98171000D03*
X125622000Y-99695000D03*
%TO.N,Net-(D1-K)*%
X145415000Y-94869000D03*
X147828000Y-102870000D03*
%TO.N,Net-(D2-K)*%
X145288000Y-103886000D03*
X145288000Y-98044000D03*
%TO.N,/D-*%
X133527800Y-100050600D03*
X134479115Y-100849515D03*
%TO.N,Net-(J1-CC2)*%
X129181366Y-100784100D03*
X131445000Y-98780600D03*
%TD*%
D24*
%TO.N,GND*%
X134874000Y-94742000D02*
X136144000Y-93472000D01*
X132522000Y-97531000D02*
X132461000Y-97470000D01*
X136144000Y-93472000D02*
X147320000Y-93472000D01*
X132522000Y-99085400D02*
X132522000Y-97531000D01*
X130721100Y-102997000D02*
X130810000Y-103085900D01*
X129202000Y-96370000D02*
X130302000Y-97470000D01*
X131991100Y-103124000D02*
X135343900Y-103124000D01*
X147320000Y-93472000D02*
X148209000Y-94361000D01*
X135343900Y-103124000D02*
X135382000Y-103085900D01*
X126673000Y-103940000D02*
X127743000Y-102870000D01*
X135165870Y-97470000D02*
X134874000Y-97470000D01*
X122648000Y-95300000D02*
X126673000Y-95300000D01*
X140589000Y-98941000D02*
X141232000Y-98941000D01*
X148209000Y-94361000D02*
X150809000Y-94361000D01*
X134874000Y-97470000D02*
X134874000Y-94742000D01*
X141232000Y-98941000D02*
X141732000Y-99441000D01*
X132461000Y-97470000D02*
X134874000Y-97470000D01*
X138057000Y-98941000D02*
X136525000Y-97409000D01*
X130302000Y-97470000D02*
X132461000Y-97470000D01*
X127870000Y-102997000D02*
X130721100Y-102997000D01*
X139282000Y-98941000D02*
X138057000Y-98941000D01*
X126673000Y-95300000D02*
X127743000Y-96370000D01*
X131953000Y-103085900D02*
X131991100Y-103124000D01*
X136525000Y-97409000D02*
X135226870Y-97409000D01*
X130810000Y-103085900D02*
X131953000Y-103085900D01*
X127743000Y-102870000D02*
X127870000Y-102997000D01*
X139282000Y-98941000D02*
X140589000Y-98941000D01*
X127743000Y-96370000D02*
X129202000Y-96370000D01*
X135226870Y-97409000D02*
X135165870Y-97470000D01*
X122648000Y-103940000D02*
X126673000Y-103940000D01*
%TO.N,Net-(U1-VDD)*%
X133162000Y-99085400D02*
X133858000Y-99085400D01*
X138023600Y-100584000D02*
X138166600Y-100441000D01*
X138166600Y-100441000D02*
X139282000Y-100441000D01*
%TO.N,Net-(U1-~{DTR})*%
X140232000Y-95086000D02*
X140208000Y-95062000D01*
X140232000Y-96991000D02*
X140232000Y-95086000D01*
X140274500Y-96948500D02*
X140232000Y-96991000D01*
%TO.N,/RST*%
X140208000Y-94422000D02*
X141285000Y-94422000D01*
X141285000Y-94422000D02*
X141351000Y-94488000D01*
X148590000Y-104521000D02*
X150809000Y-104521000D01*
%TO.N,/VBUS*%
X140171000Y-101891000D02*
X139319000Y-102743000D01*
X139282000Y-102706000D02*
X139319000Y-102743000D01*
X146578000Y-100564000D02*
X147005000Y-100137000D01*
X139319000Y-102809000D02*
X140015000Y-103505000D01*
X142307900Y-104267000D02*
X146010900Y-100564000D01*
X140617130Y-104267000D02*
X142307900Y-104267000D01*
X139319000Y-102743000D02*
X139319000Y-102809000D01*
X125622000Y-100781000D02*
X126911000Y-102070000D01*
X125622000Y-99568000D02*
X125622000Y-99695000D01*
X133350000Y-98110000D02*
X134874000Y-98110000D01*
X140015000Y-103505000D02*
X140015000Y-103664870D01*
X140232000Y-101891000D02*
X140171000Y-101891000D01*
X147828000Y-97536000D02*
X147828000Y-98806000D01*
X139282000Y-100941000D02*
X139282000Y-102706000D01*
X129119000Y-101384100D02*
X128433100Y-102070000D01*
X147005000Y-96647000D02*
X150555000Y-96647000D01*
X125622000Y-99695000D02*
X125622000Y-100781000D01*
X140015000Y-103664870D02*
X140617130Y-104267000D01*
X125622000Y-98362008D02*
X125622000Y-99568000D01*
X139319000Y-102743000D02*
X139380000Y-102743000D01*
X147005000Y-99629000D02*
X147005000Y-99695000D01*
X147828000Y-98806000D02*
X147005000Y-99629000D01*
X126911000Y-102070000D02*
X127743000Y-102070000D01*
X127743000Y-97170000D02*
X126814008Y-97170000D01*
X135829000Y-98110000D02*
X135890000Y-98171000D01*
X147005000Y-96713000D02*
X147828000Y-97536000D01*
X128433100Y-102070000D02*
X127743000Y-102070000D01*
X147005000Y-100137000D02*
X147005000Y-99695000D01*
X126814008Y-97170000D02*
X125622000Y-98362008D01*
X134874000Y-98110000D02*
X135829000Y-98110000D01*
X130810000Y-101384100D02*
X129119000Y-101384100D01*
X150555000Y-96647000D02*
X150809000Y-96901000D01*
X146010900Y-100564000D02*
X146578000Y-100564000D01*
X147005000Y-96647000D02*
X147005000Y-96713000D01*
%TO.N,Net-(D1-A)*%
X146365000Y-95951000D02*
X147005000Y-95311000D01*
X146365000Y-96647000D02*
X146365000Y-95951000D01*
X147005000Y-95311000D02*
X147005000Y-94869000D01*
%TO.N,Net-(D1-K)*%
X145415000Y-94869000D02*
X146365000Y-94869000D01*
X146927001Y-102870000D02*
X147828000Y-102870000D01*
X142113000Y-94869000D02*
X145415000Y-94869000D01*
X141224000Y-95758000D02*
X142113000Y-94869000D01*
X146238000Y-101981000D02*
X146238000Y-102180999D01*
X141232000Y-96991000D02*
X141232000Y-96020000D01*
X141224000Y-96012000D02*
X141224000Y-95758000D01*
X146238000Y-102180999D02*
X146927001Y-102870000D01*
X141232000Y-96020000D02*
X141224000Y-96012000D01*
%TO.N,Net-(D2-A)*%
X146365000Y-99126000D02*
X146878000Y-98613000D01*
X146878000Y-98613000D02*
X146878000Y-98044000D01*
X146365000Y-99695000D02*
X146365000Y-99126000D01*
X146365000Y-99695000D02*
X146304000Y-99695000D01*
%TO.N,Net-(D2-K)*%
X141732000Y-96991000D02*
X141732000Y-95885000D01*
X141732000Y-95885000D02*
X142347000Y-95270000D01*
X145288000Y-98044000D02*
X146304000Y-98044000D01*
X142514000Y-95270000D02*
X145288000Y-98044000D01*
X146238000Y-103886000D02*
X145288000Y-103886000D01*
X142347000Y-95270000D02*
X142514000Y-95270000D01*
%TO.N,/D+*%
X126874800Y-99370000D02*
X127743000Y-99370000D01*
X128932423Y-100183100D02*
X131895000Y-100183100D01*
X126766000Y-100370000D02*
X126717000Y-100321000D01*
X128745523Y-100370000D02*
X128932423Y-100183100D01*
X126717000Y-100321000D02*
X126717000Y-99527800D01*
X127743000Y-100370000D02*
X126766000Y-100370000D01*
X133096000Y-101384100D02*
X135039100Y-99441000D01*
X126717000Y-99527800D02*
X126874800Y-99370000D01*
X127743000Y-100370000D02*
X128745523Y-100370000D01*
X135039100Y-99441000D02*
X139282000Y-99441000D01*
X131895000Y-100183100D02*
X133096000Y-101384100D01*
%TO.N,/D-*%
X135382000Y-101384100D02*
X136825100Y-99941000D01*
X134479115Y-100849515D02*
X134847415Y-100849515D01*
X128681100Y-99870000D02*
X128769000Y-99782100D01*
X136825100Y-99941000D02*
X139282000Y-99941000D01*
X128720000Y-98870000D02*
X127743000Y-98870000D01*
X128769000Y-99782100D02*
X129632100Y-99782100D01*
X133259300Y-99782100D02*
X133527800Y-100050600D01*
X129632100Y-99782100D02*
X128720000Y-98870000D01*
X133259300Y-99782100D02*
X129632100Y-99782100D01*
X134847415Y-100849515D02*
X135382000Y-101384100D01*
X127743000Y-99870000D02*
X128681100Y-99870000D01*
%TO.N,Net-(J1-CC2)*%
X131445000Y-98780600D02*
X131445000Y-98491000D01*
X129151900Y-100784100D02*
X129181366Y-100784100D01*
X127743000Y-101370000D02*
X128566000Y-101370000D01*
X131445000Y-98491000D02*
X131826000Y-98110000D01*
X128566000Y-101370000D02*
X129151900Y-100784100D01*
%TO.N,Net-(J1-CC1)*%
X127743000Y-98370000D02*
X130042000Y-98370000D01*
X130042000Y-98370000D02*
X130302000Y-98110000D01*
%TO.N,Net-(U1-~{RST})*%
X140732000Y-101891000D02*
X140732000Y-103428000D01*
%TO.N,/TX*%
X146878000Y-101981000D02*
X150809000Y-101981000D01*
%TO.N,/RX*%
X149098000Y-99441000D02*
X150809000Y-99441000D01*
X146878000Y-103698000D02*
X145542000Y-102362000D01*
X145542000Y-102362000D02*
X145542000Y-101600000D01*
X147574000Y-100965000D02*
X149098000Y-99441000D01*
X146878000Y-103886000D02*
X146878000Y-103698000D01*
X146177000Y-100965000D02*
X147574000Y-100965000D01*
X145542000Y-101600000D02*
X146177000Y-100965000D01*
%TD*%
%TA.AperFunction,Conductor*%
%TO.N,GND*%
G36*
X143013699Y-97873352D02*
G01*
X143022528Y-97877009D01*
X143132599Y-97891500D01*
X143164923Y-97891499D01*
X143172275Y-97892382D01*
X143197845Y-97903344D01*
X143224536Y-97911181D01*
X143229510Y-97916920D01*
X143236491Y-97919914D01*
X143252073Y-97942958D01*
X143270293Y-97963984D01*
X143271374Y-97971503D01*
X143275628Y-97977794D01*
X143281500Y-98015495D01*
X143281500Y-98040402D01*
X143295989Y-98150468D01*
X143298094Y-98158322D01*
X143294814Y-98159200D01*
X143300581Y-98213073D01*
X143297517Y-98223522D01*
X143298095Y-98223677D01*
X143295990Y-98231529D01*
X143281500Y-98341598D01*
X143281500Y-98540403D01*
X143295989Y-98650468D01*
X143298094Y-98658322D01*
X143294814Y-98659200D01*
X143300581Y-98713073D01*
X143297517Y-98723522D01*
X143298095Y-98723677D01*
X143295990Y-98731529D01*
X143281500Y-98841598D01*
X143281500Y-99040403D01*
X143295989Y-99150468D01*
X143298094Y-99158322D01*
X143294814Y-99159200D01*
X143300581Y-99213073D01*
X143297517Y-99223522D01*
X143298095Y-99223677D01*
X143295990Y-99231529D01*
X143281500Y-99341598D01*
X143281500Y-99540403D01*
X143295989Y-99650468D01*
X143298094Y-99658322D01*
X143294814Y-99659200D01*
X143300581Y-99713073D01*
X143297517Y-99723522D01*
X143298095Y-99723677D01*
X143295990Y-99731529D01*
X143281500Y-99841598D01*
X143281500Y-100040403D01*
X143295989Y-100150468D01*
X143298094Y-100158322D01*
X143294814Y-100159200D01*
X143300581Y-100213073D01*
X143297517Y-100223522D01*
X143298095Y-100223677D01*
X143295990Y-100231529D01*
X143281500Y-100341598D01*
X143281500Y-100540403D01*
X143295989Y-100650468D01*
X143298094Y-100658322D01*
X143295268Y-100659079D01*
X143301678Y-100705775D01*
X143299646Y-100722702D01*
X143295991Y-100731528D01*
X143281500Y-100841599D01*
X143281500Y-100873917D01*
X143280617Y-100881275D01*
X143269651Y-100906851D01*
X143261815Y-100933539D01*
X143256077Y-100938510D01*
X143253085Y-100945491D01*
X143230033Y-100961077D01*
X143209011Y-100979294D01*
X143200286Y-100981192D01*
X143195205Y-100984628D01*
X143183204Y-100984908D01*
X143157504Y-100990500D01*
X143132597Y-100990500D01*
X143022531Y-101004989D01*
X143014678Y-101007094D01*
X143013802Y-101003824D01*
X142959853Y-101009567D01*
X142949477Y-101006518D01*
X142949323Y-101007095D01*
X142941470Y-101004990D01*
X142831401Y-100990500D01*
X142632596Y-100990500D01*
X142522531Y-101004989D01*
X142514678Y-101007094D01*
X142513802Y-101003824D01*
X142459853Y-101009567D01*
X142449477Y-101006518D01*
X142449323Y-101007095D01*
X142441470Y-101004990D01*
X142331401Y-100990500D01*
X142132596Y-100990500D01*
X142022531Y-101004989D01*
X142014678Y-101007094D01*
X142013802Y-101003824D01*
X141959853Y-101009567D01*
X141949477Y-101006518D01*
X141949323Y-101007095D01*
X141941470Y-101004990D01*
X141831401Y-100990500D01*
X141632596Y-100990500D01*
X141522531Y-101004989D01*
X141514678Y-101007094D01*
X141513802Y-101003824D01*
X141459853Y-101009567D01*
X141449477Y-101006518D01*
X141449323Y-101007095D01*
X141441470Y-101004990D01*
X141331401Y-100990500D01*
X141132596Y-100990500D01*
X141022531Y-101004989D01*
X141014678Y-101007094D01*
X141013802Y-101003824D01*
X140959853Y-101009567D01*
X140949477Y-101006518D01*
X140949323Y-101007095D01*
X140941470Y-101004990D01*
X140831401Y-100990500D01*
X140632596Y-100990500D01*
X140522531Y-101004989D01*
X140514678Y-101007094D01*
X140513924Y-101004281D01*
X140467224Y-101010678D01*
X140450297Y-101008646D01*
X140441472Y-101004991D01*
X140331401Y-100990500D01*
X140299082Y-100990500D01*
X140291724Y-100989617D01*
X140266147Y-100978651D01*
X140239460Y-100970815D01*
X140234488Y-100965077D01*
X140227508Y-100962085D01*
X140211921Y-100939033D01*
X140193705Y-100918011D01*
X140191807Y-100909286D01*
X140188371Y-100904205D01*
X140188090Y-100892202D01*
X140182499Y-100866500D01*
X140182499Y-100841597D01*
X140173536Y-100773512D01*
X140168009Y-100731528D01*
X140168008Y-100731525D01*
X140165905Y-100723674D01*
X140169207Y-100722789D01*
X140163392Y-100669075D01*
X140166501Y-100658485D01*
X140165905Y-100658326D01*
X140168008Y-100650475D01*
X140168008Y-100650474D01*
X140168009Y-100650472D01*
X140182500Y-100540401D01*
X140182499Y-100341600D01*
X140180062Y-100323091D01*
X140173409Y-100272551D01*
X140168009Y-100231528D01*
X140168008Y-100231525D01*
X140165905Y-100223674D01*
X140169207Y-100222789D01*
X140163392Y-100169075D01*
X140166501Y-100158485D01*
X140165905Y-100158326D01*
X140168008Y-100150475D01*
X140168008Y-100150474D01*
X140168009Y-100150472D01*
X140182500Y-100040401D01*
X140182499Y-99841600D01*
X140181546Y-99834363D01*
X140171394Y-99757243D01*
X140168009Y-99731528D01*
X140168008Y-99731525D01*
X140165905Y-99723674D01*
X140169207Y-99722789D01*
X140163392Y-99669075D01*
X140166501Y-99658485D01*
X140165905Y-99658326D01*
X140168008Y-99650475D01*
X140168008Y-99650474D01*
X140168009Y-99650472D01*
X140182500Y-99540401D01*
X140182499Y-99341600D01*
X140182499Y-99341598D01*
X140182499Y-99341596D01*
X140168011Y-99231536D01*
X140165906Y-99223682D01*
X140169007Y-99222850D01*
X140163128Y-99168382D01*
X140166147Y-99158389D01*
X140165418Y-99158194D01*
X140167521Y-99150342D01*
X140178626Y-99066000D01*
X140150506Y-99066000D01*
X140146835Y-99064922D01*
X140143107Y-99065779D01*
X140113574Y-99055155D01*
X140083467Y-99046315D01*
X140079917Y-99043048D01*
X140077361Y-99042129D01*
X140052115Y-99017466D01*
X140051348Y-99016466D01*
X140026167Y-98951292D01*
X140040219Y-98882850D01*
X140051348Y-98865534D01*
X140052115Y-98864534D01*
X140073055Y-98849236D01*
X140089044Y-98832870D01*
X140098404Y-98830718D01*
X140108534Y-98823319D01*
X140150506Y-98816000D01*
X140178626Y-98816000D01*
X140167521Y-98731659D01*
X140165418Y-98723807D01*
X140169041Y-98722835D01*
X140162919Y-98670884D01*
X140166495Y-98658484D01*
X140165905Y-98658326D01*
X140168008Y-98650475D01*
X140168008Y-98650474D01*
X140168009Y-98650472D01*
X140182500Y-98540401D01*
X140182499Y-98341600D01*
X140168009Y-98231528D01*
X140168008Y-98231525D01*
X140165905Y-98223674D01*
X140168757Y-98222909D01*
X140162321Y-98176225D01*
X140164352Y-98159299D01*
X140168009Y-98150472D01*
X140182500Y-98040401D01*
X140182499Y-98008083D01*
X140183383Y-98000724D01*
X140194347Y-97975149D01*
X140202185Y-97948460D01*
X140207922Y-97943488D01*
X140210916Y-97936507D01*
X140233968Y-97920919D01*
X140254989Y-97902705D01*
X140263712Y-97900807D01*
X140268796Y-97897370D01*
X140280802Y-97897089D01*
X140306500Y-97891499D01*
X140331402Y-97891499D01*
X140360382Y-97887683D01*
X140441472Y-97877009D01*
X140441475Y-97877007D01*
X140449326Y-97874905D01*
X140450210Y-97878207D01*
X140503925Y-97872392D01*
X140514514Y-97875501D01*
X140514674Y-97874905D01*
X140522524Y-97877008D01*
X140522526Y-97877008D01*
X140522528Y-97877009D01*
X140632599Y-97891500D01*
X140831400Y-97891499D01*
X140831401Y-97891499D01*
X140848087Y-97889302D01*
X140941472Y-97877009D01*
X140941475Y-97877007D01*
X140949326Y-97874905D01*
X140950210Y-97878207D01*
X141003925Y-97872392D01*
X141014514Y-97875501D01*
X141014674Y-97874905D01*
X141022524Y-97877008D01*
X141022526Y-97877008D01*
X141022528Y-97877009D01*
X141132599Y-97891500D01*
X141331400Y-97891499D01*
X141331401Y-97891499D01*
X141348087Y-97889302D01*
X141441472Y-97877009D01*
X141441475Y-97877007D01*
X141449326Y-97874905D01*
X141450210Y-97878207D01*
X141503925Y-97872392D01*
X141514514Y-97875501D01*
X141514674Y-97874905D01*
X141522524Y-97877008D01*
X141522526Y-97877008D01*
X141522528Y-97877009D01*
X141632599Y-97891500D01*
X141831400Y-97891499D01*
X141831401Y-97891499D01*
X141848087Y-97889302D01*
X141941472Y-97877009D01*
X141941475Y-97877007D01*
X141949326Y-97874905D01*
X141950210Y-97878207D01*
X142003925Y-97872392D01*
X142014514Y-97875501D01*
X142014674Y-97874905D01*
X142022524Y-97877008D01*
X142022526Y-97877008D01*
X142022528Y-97877009D01*
X142132599Y-97891500D01*
X142331400Y-97891499D01*
X142331401Y-97891499D01*
X142348087Y-97889302D01*
X142441472Y-97877009D01*
X142441475Y-97877007D01*
X142449326Y-97874905D01*
X142450210Y-97878207D01*
X142503925Y-97872392D01*
X142514514Y-97875501D01*
X142514674Y-97874905D01*
X142522524Y-97877008D01*
X142522526Y-97877008D01*
X142522528Y-97877009D01*
X142632599Y-97891500D01*
X142831400Y-97891499D01*
X142831401Y-97891499D01*
X142848087Y-97889302D01*
X142941472Y-97877009D01*
X142941475Y-97877007D01*
X142949326Y-97874905D01*
X142950071Y-97877686D01*
X142961490Y-97872146D01*
X142996775Y-97871321D01*
X143013699Y-97873352D01*
G37*
%TD.AperFunction*%
%TA.AperFunction,Conductor*%
G36*
X131099639Y-97263993D02*
G01*
X131108986Y-97270000D01*
X131299568Y-97270000D01*
X131321146Y-97276336D01*
X131343570Y-97278070D01*
X131354023Y-97285990D01*
X131366607Y-97289685D01*
X131381334Y-97306681D01*
X131399261Y-97320263D01*
X131403773Y-97332577D01*
X131412362Y-97342489D01*
X131415562Y-97364748D01*
X131423301Y-97385866D01*
X131420439Y-97398665D01*
X131422306Y-97411647D01*
X131412962Y-97432105D01*
X131408056Y-97454053D01*
X131397162Y-97466702D01*
X131393281Y-97475203D01*
X131386743Y-97482185D01*
X131381219Y-97487645D01*
X131297718Y-97551718D01*
X131239016Y-97628219D01*
X131232982Y-97634185D01*
X131209392Y-97646889D01*
X131187755Y-97662689D01*
X131176375Y-97664672D01*
X131171467Y-97667316D01*
X131164359Y-97666766D01*
X131145807Y-97670000D01*
X131108347Y-97670000D01*
X131098217Y-97676424D01*
X131028349Y-97676002D01*
X131019011Y-97670000D01*
X130982193Y-97670000D01*
X130915154Y-97650315D01*
X130883817Y-97621487D01*
X130830282Y-97551718D01*
X130752943Y-97492374D01*
X130711743Y-97435948D01*
X130707588Y-97366202D01*
X130741801Y-97305281D01*
X130803518Y-97272529D01*
X130828432Y-97270000D01*
X131019648Y-97270000D01*
X131029771Y-97263579D01*
X131099639Y-97263993D01*
G37*
%TD.AperFunction*%
%TA.AperFunction,Conductor*%
G36*
X132623639Y-97263993D02*
G01*
X132632986Y-97270000D01*
X132823568Y-97270000D01*
X132845146Y-97276336D01*
X132867570Y-97278070D01*
X132878023Y-97285990D01*
X132890607Y-97289685D01*
X132905334Y-97306681D01*
X132923261Y-97320263D01*
X132927773Y-97332577D01*
X132936362Y-97342489D01*
X132939562Y-97364748D01*
X132947301Y-97385866D01*
X132944439Y-97398665D01*
X132946306Y-97411647D01*
X132936962Y-97432105D01*
X132932056Y-97454053D01*
X132921162Y-97466702D01*
X132917281Y-97475203D01*
X132910743Y-97482185D01*
X132905219Y-97487645D01*
X132821718Y-97551718D01*
X132763016Y-97628219D01*
X132756982Y-97634185D01*
X132733392Y-97646889D01*
X132711755Y-97662689D01*
X132700375Y-97664672D01*
X132695467Y-97667316D01*
X132688359Y-97666766D01*
X132669807Y-97670000D01*
X132632347Y-97670000D01*
X132622217Y-97676424D01*
X132552349Y-97676002D01*
X132543011Y-97670000D01*
X132506193Y-97670000D01*
X132439154Y-97650315D01*
X132407817Y-97621487D01*
X132354282Y-97551718D01*
X132276943Y-97492374D01*
X132235743Y-97435948D01*
X132231588Y-97366202D01*
X132265801Y-97305281D01*
X132327518Y-97272529D01*
X132352432Y-97270000D01*
X132543648Y-97270000D01*
X132553771Y-97263579D01*
X132623639Y-97263993D01*
G37*
%TD.AperFunction*%
%TA.AperFunction,Conductor*%
G36*
X152593922Y-91896685D02*
G01*
X152639677Y-91949489D01*
X152650882Y-92000503D01*
X152679189Y-99058363D01*
X152711376Y-107083705D01*
X152691961Y-107150821D01*
X152639341Y-107196787D01*
X152587378Y-107208200D01*
X121833300Y-107208200D01*
X121766261Y-107188515D01*
X121720506Y-107135711D01*
X121709300Y-107084200D01*
X121709300Y-104943413D01*
X121728985Y-104876374D01*
X121781789Y-104830619D01*
X121850947Y-104820675D01*
X121880753Y-104828852D01*
X122056310Y-104901570D01*
X122056318Y-104901572D01*
X122249504Y-104939999D01*
X122249508Y-104940000D01*
X122398000Y-104940000D01*
X122398000Y-104240000D01*
X122898000Y-104240000D01*
X122898000Y-104940000D01*
X123046492Y-104940000D01*
X123046495Y-104939999D01*
X123239681Y-104901572D01*
X123239693Y-104901569D01*
X123421671Y-104826192D01*
X123421684Y-104826185D01*
X123585462Y-104716751D01*
X123585466Y-104716748D01*
X123724748Y-104577466D01*
X123724751Y-104577462D01*
X123834185Y-104413684D01*
X123834192Y-104413671D01*
X123909569Y-104231692D01*
X123909569Y-104231690D01*
X123917862Y-104190000D01*
X123114988Y-104190000D01*
X123132205Y-104180060D01*
X123188060Y-104124205D01*
X123227556Y-104055796D01*
X123248000Y-103979496D01*
X123248000Y-103900504D01*
X123227556Y-103824204D01*
X123188060Y-103755795D01*
X123132205Y-103699940D01*
X123114988Y-103690000D01*
X123917862Y-103690000D01*
X123909569Y-103648309D01*
X123909569Y-103648307D01*
X123834192Y-103466328D01*
X123834185Y-103466315D01*
X123724751Y-103302537D01*
X123724748Y-103302533D01*
X123585466Y-103163251D01*
X123585462Y-103163248D01*
X123421684Y-103053814D01*
X123421671Y-103053807D01*
X123239693Y-102978430D01*
X123239681Y-102978427D01*
X123046495Y-102940000D01*
X122898000Y-102940000D01*
X122898000Y-103640000D01*
X122398000Y-103640000D01*
X122398000Y-102940000D01*
X122249504Y-102940000D01*
X122056318Y-102978427D01*
X122056306Y-102978430D01*
X121880752Y-103051147D01*
X121811283Y-103058616D01*
X121748804Y-103027341D01*
X121713152Y-102967252D01*
X121709300Y-102936586D01*
X121709300Y-99616153D01*
X124821500Y-99616153D01*
X124821500Y-99773846D01*
X124852261Y-99928489D01*
X124852264Y-99928501D01*
X124912602Y-100074172D01*
X124912609Y-100074185D01*
X125000602Y-100205874D01*
X125021480Y-100272551D01*
X125021500Y-100274765D01*
X125021500Y-100694330D01*
X125021499Y-100694348D01*
X125021499Y-100860054D01*
X125021498Y-100860054D01*
X125021499Y-100860057D01*
X125062423Y-101012785D01*
X125085069Y-101052009D01*
X125141477Y-101149712D01*
X125141481Y-101149717D01*
X125260349Y-101268585D01*
X125260355Y-101268590D01*
X125905261Y-101913496D01*
X125938746Y-101974819D01*
X125933762Y-102044511D01*
X125905262Y-102088858D01*
X125837485Y-102156635D01*
X125761719Y-102287863D01*
X125741369Y-102363814D01*
X125722500Y-102434234D01*
X125722500Y-102585766D01*
X125737194Y-102640606D01*
X125761719Y-102732136D01*
X125796663Y-102792660D01*
X125837485Y-102863365D01*
X125837488Y-102863368D01*
X125842432Y-102869811D01*
X125839612Y-102871974D01*
X125865302Y-102919020D01*
X125860318Y-102988712D01*
X125818446Y-103044645D01*
X125809379Y-103050416D01*
X125809387Y-103050427D01*
X125640536Y-103163248D01*
X125501251Y-103302533D01*
X125501248Y-103302537D01*
X125391814Y-103466315D01*
X125391807Y-103466328D01*
X125316430Y-103648307D01*
X125316430Y-103648309D01*
X125308138Y-103690000D01*
X126111012Y-103690000D01*
X126093795Y-103699940D01*
X126037940Y-103755795D01*
X125998444Y-103824204D01*
X125978000Y-103900504D01*
X125978000Y-103979496D01*
X125998444Y-104055796D01*
X126037940Y-104124205D01*
X126093795Y-104180060D01*
X126111012Y-104190000D01*
X125308138Y-104190000D01*
X125316430Y-104231690D01*
X125316430Y-104231692D01*
X125391807Y-104413671D01*
X125391814Y-104413684D01*
X125501248Y-104577462D01*
X125501251Y-104577466D01*
X125640533Y-104716748D01*
X125640537Y-104716751D01*
X125804315Y-104826185D01*
X125804328Y-104826192D01*
X125986306Y-104901569D01*
X125986318Y-104901572D01*
X126179504Y-104939999D01*
X126179508Y-104940000D01*
X126578000Y-104940000D01*
X126578000Y-104240000D01*
X127078000Y-104240000D01*
X127078000Y-104940000D01*
X127476492Y-104940000D01*
X127476495Y-104939999D01*
X127669681Y-104901572D01*
X127669693Y-104901569D01*
X127851671Y-104826192D01*
X127851684Y-104826185D01*
X128015462Y-104716751D01*
X128015466Y-104716748D01*
X128154748Y-104577466D01*
X128154751Y-104577462D01*
X128264185Y-104413684D01*
X128264192Y-104413671D01*
X128339569Y-104231692D01*
X128339569Y-104231690D01*
X128347862Y-104190000D01*
X127544988Y-104190000D01*
X127562205Y-104180060D01*
X127618060Y-104124205D01*
X127657556Y-104055796D01*
X127678000Y-103979496D01*
X127678000Y-103900504D01*
X127657556Y-103824204D01*
X127618060Y-103755795D01*
X127562205Y-103699940D01*
X127544988Y-103690000D01*
X127993000Y-103690000D01*
X128364265Y-103690000D01*
X128384818Y-103676000D01*
X128422924Y-103670000D01*
X128515828Y-103670000D01*
X128515844Y-103669999D01*
X128575372Y-103663598D01*
X128575379Y-103663596D01*
X128710086Y-103613354D01*
X128710093Y-103613350D01*
X128825187Y-103527190D01*
X128825190Y-103527187D01*
X128911350Y-103412093D01*
X128911354Y-103412086D01*
X128939380Y-103336944D01*
X130132200Y-103336944D01*
X130138601Y-103396472D01*
X130138603Y-103396479D01*
X130188845Y-103531186D01*
X130188849Y-103531193D01*
X130275009Y-103646287D01*
X130275012Y-103646290D01*
X130390106Y-103732450D01*
X130390113Y-103732454D01*
X130524820Y-103782696D01*
X130524827Y-103782698D01*
X130584355Y-103789099D01*
X130584372Y-103789100D01*
X130632200Y-103789100D01*
X130987800Y-103789100D01*
X131035628Y-103789100D01*
X131035644Y-103789099D01*
X131095172Y-103782698D01*
X131095179Y-103782696D01*
X131229886Y-103732454D01*
X131229893Y-103732450D01*
X131344987Y-103646290D01*
X131344990Y-103646287D01*
X131431150Y-103531193D01*
X131431154Y-103531186D01*
X131481396Y-103396479D01*
X131481398Y-103396472D01*
X131487799Y-103336944D01*
X132418200Y-103336944D01*
X132424601Y-103396472D01*
X132424603Y-103396479D01*
X132474845Y-103531186D01*
X132474849Y-103531193D01*
X132561009Y-103646287D01*
X132561012Y-103646290D01*
X132676106Y-103732450D01*
X132676113Y-103732454D01*
X132810820Y-103782696D01*
X132810827Y-103782698D01*
X132870355Y-103789099D01*
X132870372Y-103789100D01*
X132918200Y-103789100D01*
X133273800Y-103789100D01*
X133321628Y-103789100D01*
X133321644Y-103789099D01*
X133381172Y-103782698D01*
X133381179Y-103782696D01*
X133515886Y-103732454D01*
X133515893Y-103732450D01*
X133630987Y-103646290D01*
X133630990Y-103646287D01*
X133717150Y-103531193D01*
X133717154Y-103531186D01*
X133767396Y-103396479D01*
X133767398Y-103396472D01*
X133773799Y-103336944D01*
X134704200Y-103336944D01*
X134710601Y-103396472D01*
X134710603Y-103396479D01*
X134760845Y-103531186D01*
X134760849Y-103531193D01*
X134847009Y-103646287D01*
X134847012Y-103646290D01*
X134962106Y-103732450D01*
X134962113Y-103732454D01*
X135096820Y-103782696D01*
X135096827Y-103782698D01*
X135156355Y-103789099D01*
X135156372Y-103789100D01*
X135204200Y-103789100D01*
X135559800Y-103789100D01*
X135607628Y-103789100D01*
X135607644Y-103789099D01*
X135667172Y-103782698D01*
X135667179Y-103782696D01*
X135801886Y-103732454D01*
X135801893Y-103732450D01*
X135916987Y-103646290D01*
X135916990Y-103646287D01*
X136003150Y-103531193D01*
X136003154Y-103531186D01*
X136053396Y-103396479D01*
X136053398Y-103396472D01*
X136059799Y-103336944D01*
X136059800Y-103336927D01*
X136059800Y-103263700D01*
X135559800Y-103263700D01*
X135559800Y-103789100D01*
X135204200Y-103789100D01*
X135204200Y-103263700D01*
X134704200Y-103263700D01*
X134704200Y-103336944D01*
X133773799Y-103336944D01*
X133773800Y-103336927D01*
X133773800Y-103263700D01*
X133273800Y-103263700D01*
X133273800Y-103789100D01*
X132918200Y-103789100D01*
X132918200Y-103263700D01*
X132418200Y-103263700D01*
X132418200Y-103336944D01*
X131487799Y-103336944D01*
X131487800Y-103336927D01*
X131487800Y-103263700D01*
X130987800Y-103263700D01*
X130987800Y-103789100D01*
X130632200Y-103789100D01*
X130632200Y-103263700D01*
X130132200Y-103263700D01*
X130132200Y-103336944D01*
X128939380Y-103336944D01*
X128961596Y-103277379D01*
X128961598Y-103277372D01*
X128967999Y-103217844D01*
X128968000Y-103217827D01*
X128968000Y-103120000D01*
X127993000Y-103120000D01*
X127993000Y-103690000D01*
X127544988Y-103690000D01*
X127493796Y-103660444D01*
X127493000Y-103660230D01*
X127493000Y-103120000D01*
X126801242Y-103120000D01*
X126734203Y-103100315D01*
X126688448Y-103047511D01*
X126678504Y-102978353D01*
X126707529Y-102914797D01*
X126713545Y-102908334D01*
X126742930Y-102878949D01*
X126804249Y-102845466D01*
X126873941Y-102850449D01*
X126873942Y-102850450D01*
X126901656Y-102860786D01*
X126910517Y-102864091D01*
X126970127Y-102870500D01*
X128515872Y-102870499D01*
X128575483Y-102864091D01*
X128710331Y-102813796D01*
X128825546Y-102727546D01*
X128868858Y-102669687D01*
X128924791Y-102627818D01*
X128967972Y-102620027D01*
X128968000Y-102620000D01*
X128968000Y-102522182D01*
X128967999Y-102522164D01*
X128964068Y-102485602D01*
X128964068Y-102459094D01*
X128967925Y-102423222D01*
X128994665Y-102358672D01*
X129003514Y-102348819D01*
X129331418Y-102020916D01*
X129392739Y-101987434D01*
X129419097Y-101984600D01*
X130286486Y-101984600D01*
X130353525Y-102004285D01*
X130360793Y-102009330D01*
X130366607Y-102013682D01*
X130408480Y-102069615D01*
X130416300Y-102112952D01*
X130416300Y-102357672D01*
X130396615Y-102424711D01*
X130366612Y-102456938D01*
X130275009Y-102525512D01*
X130188849Y-102640606D01*
X130188845Y-102640613D01*
X130138603Y-102775320D01*
X130138601Y-102775327D01*
X130132200Y-102834855D01*
X130132200Y-102908100D01*
X131487800Y-102908100D01*
X131487800Y-102834872D01*
X131487799Y-102834855D01*
X131481398Y-102775327D01*
X131481396Y-102775320D01*
X131431154Y-102640613D01*
X131431150Y-102640606D01*
X131344990Y-102525512D01*
X131253388Y-102456938D01*
X131250651Y-102453282D01*
X131246497Y-102451385D01*
X131229905Y-102425567D01*
X131211518Y-102401004D01*
X131210502Y-102395376D01*
X131208723Y-102392607D01*
X131203700Y-102357672D01*
X131203700Y-102112951D01*
X131223385Y-102045912D01*
X131253385Y-102013687D01*
X131345346Y-101944846D01*
X131431596Y-101829631D01*
X131481891Y-101694783D01*
X131488300Y-101635173D01*
X131488299Y-101133028D01*
X131481891Y-101073417D01*
X131481891Y-101073416D01*
X131436208Y-100950933D01*
X131434019Y-100920324D01*
X131429652Y-100889953D01*
X131431549Y-100885797D01*
X131431224Y-100881241D01*
X131445930Y-100854308D01*
X131458677Y-100826397D01*
X131462519Y-100823927D01*
X131464709Y-100819918D01*
X131491639Y-100805213D01*
X131517455Y-100788623D01*
X131523657Y-100787731D01*
X131526033Y-100786434D01*
X131552390Y-100783600D01*
X131594903Y-100783600D01*
X131661942Y-100803285D01*
X131682584Y-100819919D01*
X132381381Y-101518716D01*
X132414866Y-101580039D01*
X132417700Y-101606393D01*
X132417700Y-101635167D01*
X132417701Y-101635177D01*
X132424108Y-101694783D01*
X132474402Y-101829628D01*
X132474406Y-101829635D01*
X132560651Y-101944843D01*
X132560652Y-101944844D01*
X132560654Y-101944846D01*
X132652612Y-102013686D01*
X132655348Y-102017340D01*
X132659503Y-102019238D01*
X132676093Y-102045052D01*
X132694482Y-102069618D01*
X132695497Y-102075247D01*
X132697277Y-102078016D01*
X132702300Y-102112951D01*
X132702300Y-102357672D01*
X132682615Y-102424711D01*
X132652612Y-102456938D01*
X132561009Y-102525512D01*
X132474849Y-102640606D01*
X132474845Y-102640613D01*
X132424603Y-102775320D01*
X132424601Y-102775327D01*
X132418200Y-102834855D01*
X132418200Y-102908100D01*
X133773800Y-102908100D01*
X133773800Y-102834872D01*
X133773799Y-102834855D01*
X133767398Y-102775327D01*
X133767396Y-102775320D01*
X133717154Y-102640613D01*
X133717150Y-102640606D01*
X133630990Y-102525512D01*
X133539388Y-102456938D01*
X133536651Y-102453282D01*
X133532497Y-102451385D01*
X133515905Y-102425567D01*
X133497518Y-102401004D01*
X133496502Y-102395376D01*
X133494723Y-102392607D01*
X133489700Y-102357672D01*
X133489700Y-102112951D01*
X133509385Y-102045912D01*
X133539385Y-102013687D01*
X133631346Y-101944846D01*
X133717596Y-101829631D01*
X133767891Y-101694783D01*
X133771119Y-101664757D01*
X133774299Y-101635186D01*
X133774299Y-101635182D01*
X133774300Y-101635173D01*
X133774299Y-101606397D01*
X133782944Y-101576951D01*
X133789467Y-101546969D01*
X133793218Y-101541957D01*
X133793981Y-101539360D01*
X133810613Y-101518720D01*
X133830452Y-101498881D01*
X133891773Y-101465398D01*
X133961465Y-101470382D01*
X133987020Y-101483461D01*
X134099936Y-101558909D01*
X134099938Y-101558910D01*
X134099942Y-101558912D01*
X134214573Y-101606393D01*
X134245618Y-101619252D01*
X134400268Y-101650014D01*
X134400271Y-101650015D01*
X134400273Y-101650015D01*
X134557956Y-101650015D01*
X134557957Y-101650015D01*
X134580557Y-101645519D01*
X134650147Y-101651745D01*
X134705326Y-101694606D01*
X134720932Y-101723803D01*
X134760402Y-101829628D01*
X134760406Y-101829635D01*
X134846651Y-101944843D01*
X134846652Y-101944844D01*
X134846654Y-101944846D01*
X134938612Y-102013686D01*
X134941348Y-102017340D01*
X134945503Y-102019238D01*
X134962093Y-102045052D01*
X134980482Y-102069618D01*
X134981497Y-102075247D01*
X134983277Y-102078016D01*
X134988300Y-102112951D01*
X134988300Y-102357672D01*
X134968615Y-102424711D01*
X134938612Y-102456938D01*
X134847009Y-102525512D01*
X134760849Y-102640606D01*
X134760845Y-102640613D01*
X134710603Y-102775320D01*
X134710601Y-102775327D01*
X134704200Y-102834855D01*
X134704200Y-102908100D01*
X136059800Y-102908100D01*
X136059800Y-102834872D01*
X136059799Y-102834855D01*
X136053398Y-102775327D01*
X136053396Y-102775320D01*
X136003154Y-102640613D01*
X136003150Y-102640606D01*
X135916990Y-102525512D01*
X135825388Y-102456938D01*
X135822651Y-102453282D01*
X135818497Y-102451385D01*
X135801905Y-102425567D01*
X135783518Y-102401004D01*
X135782502Y-102395376D01*
X135780723Y-102392607D01*
X135775700Y-102357672D01*
X135775700Y-102112951D01*
X135795385Y-102045912D01*
X135825385Y-102013687D01*
X135917346Y-101944846D01*
X136003596Y-101829631D01*
X136053891Y-101694783D01*
X136057119Y-101664757D01*
X136060299Y-101635186D01*
X136060299Y-101635182D01*
X136060300Y-101635173D01*
X136060299Y-101606397D01*
X136079981Y-101539360D01*
X136096613Y-101518720D01*
X137014164Y-100601170D01*
X137075486Y-100567687D01*
X137145178Y-100572671D01*
X137201111Y-100614543D01*
X137223461Y-100664661D01*
X137253861Y-100817491D01*
X137253864Y-100817501D01*
X137314202Y-100963172D01*
X137314209Y-100963185D01*
X137401810Y-101094288D01*
X137401813Y-101094292D01*
X137513307Y-101205786D01*
X137513311Y-101205789D01*
X137644414Y-101293390D01*
X137644427Y-101293397D01*
X137749889Y-101337080D01*
X137790103Y-101353737D01*
X137924649Y-101380500D01*
X137944753Y-101384499D01*
X137944756Y-101384500D01*
X137944758Y-101384500D01*
X138102444Y-101384500D01*
X138102445Y-101384499D01*
X138257097Y-101353737D01*
X138356245Y-101312668D01*
X138425712Y-101305200D01*
X138488192Y-101336475D01*
X138488837Y-101337080D01*
X138496038Y-101343881D01*
X138542964Y-101405036D01*
X138638027Y-101477980D01*
X138642641Y-101482338D01*
X138657181Y-101507248D01*
X138674189Y-101530540D01*
X138675641Y-101538871D01*
X138677864Y-101542680D01*
X138677556Y-101549860D01*
X138681500Y-101572488D01*
X138681500Y-102218608D01*
X138661815Y-102285647D01*
X138660602Y-102287499D01*
X138609609Y-102363814D01*
X138609602Y-102363827D01*
X138549264Y-102509498D01*
X138549261Y-102509510D01*
X138518500Y-102664153D01*
X138518500Y-102821846D01*
X138549261Y-102976489D01*
X138549264Y-102976501D01*
X138609602Y-103122172D01*
X138609609Y-103122185D01*
X138697210Y-103253288D01*
X138697213Y-103253292D01*
X138808707Y-103364786D01*
X138808711Y-103364789D01*
X138939814Y-103452390D01*
X138939827Y-103452397D01*
X139032759Y-103490890D01*
X139085503Y-103512737D01*
X139158459Y-103527248D01*
X139175216Y-103536013D01*
X139193696Y-103540034D01*
X139218728Y-103558773D01*
X139220368Y-103559631D01*
X139221950Y-103561185D01*
X139251611Y-103590847D01*
X139285095Y-103652171D01*
X139286867Y-103662342D01*
X139299954Y-103761754D01*
X139299956Y-103761762D01*
X139358703Y-103903591D01*
X139360464Y-103907841D01*
X139456718Y-104033282D01*
X139582159Y-104129536D01*
X139582160Y-104129536D01*
X139582161Y-104129537D01*
X139641776Y-104154230D01*
X139682005Y-104181110D01*
X140132269Y-104631374D01*
X140132279Y-104631385D01*
X140136609Y-104635715D01*
X140136610Y-104635716D01*
X140248414Y-104747520D01*
X140248416Y-104747521D01*
X140248420Y-104747524D01*
X140375123Y-104820675D01*
X140385346Y-104826577D01*
X140497149Y-104856534D01*
X140538072Y-104867500D01*
X140538073Y-104867500D01*
X142221231Y-104867500D01*
X142221247Y-104867501D01*
X142228843Y-104867501D01*
X142386954Y-104867501D01*
X142386957Y-104867501D01*
X142539685Y-104826577D01*
X142589804Y-104797639D01*
X142676616Y-104747520D01*
X142788420Y-104635716D01*
X142788420Y-104635714D01*
X142798628Y-104625507D01*
X142798630Y-104625504D01*
X144812493Y-102611640D01*
X144873814Y-102578157D01*
X144943506Y-102583141D01*
X144999439Y-102625013D01*
X145007559Y-102637323D01*
X145061477Y-102730712D01*
X145061481Y-102730717D01*
X145180349Y-102849585D01*
X145180355Y-102849590D01*
X145217863Y-102887098D01*
X145251348Y-102948421D01*
X145246364Y-103018113D01*
X145204492Y-103074046D01*
X145154374Y-103096396D01*
X145054508Y-103116261D01*
X145054498Y-103116264D01*
X144908827Y-103176602D01*
X144908814Y-103176609D01*
X144777711Y-103264210D01*
X144777707Y-103264213D01*
X144666213Y-103375707D01*
X144666210Y-103375711D01*
X144578609Y-103506814D01*
X144578602Y-103506827D01*
X144518264Y-103652498D01*
X144518261Y-103652510D01*
X144487500Y-103807153D01*
X144487500Y-103964846D01*
X144518261Y-104119489D01*
X144518264Y-104119501D01*
X144578602Y-104265172D01*
X144578609Y-104265185D01*
X144666210Y-104396288D01*
X144666213Y-104396292D01*
X144777707Y-104507786D01*
X144777711Y-104507789D01*
X144908814Y-104595390D01*
X144908827Y-104595397D01*
X145054498Y-104655735D01*
X145054503Y-104655737D01*
X145209153Y-104686499D01*
X145209156Y-104686500D01*
X145209158Y-104686500D01*
X145366844Y-104686500D01*
X145366845Y-104686499D01*
X145521497Y-104655737D01*
X145656431Y-104599846D01*
X145667172Y-104595397D01*
X145667172Y-104595396D01*
X145667179Y-104595394D01*
X145667184Y-104595390D01*
X145667187Y-104595389D01*
X145712850Y-104564877D01*
X145743269Y-104544551D01*
X145809946Y-104523673D01*
X145859613Y-104533091D01*
X145951238Y-104571044D01*
X146068639Y-104586500D01*
X146407360Y-104586499D01*
X146407363Y-104586499D01*
X146524755Y-104571045D01*
X146524755Y-104571044D01*
X146524762Y-104571044D01*
X146524767Y-104571041D01*
X146525900Y-104570739D01*
X146527085Y-104570738D01*
X146532821Y-104569984D01*
X146532920Y-104570738D01*
X146583080Y-104570737D01*
X146583180Y-104569983D01*
X146588907Y-104570737D01*
X146590091Y-104570737D01*
X146591234Y-104571043D01*
X146591236Y-104571043D01*
X146591238Y-104571044D01*
X146708639Y-104586500D01*
X147047360Y-104586499D01*
X147047363Y-104586499D01*
X147164753Y-104571046D01*
X147164757Y-104571044D01*
X147164762Y-104571044D01*
X147310841Y-104510536D01*
X147436282Y-104414282D01*
X147532536Y-104288841D01*
X147593044Y-104142762D01*
X147608500Y-104025361D01*
X147608499Y-103793459D01*
X147628183Y-103726420D01*
X147680987Y-103680665D01*
X147744656Y-103670056D01*
X147749153Y-103670499D01*
X147749158Y-103670500D01*
X147749163Y-103670500D01*
X147906843Y-103670500D01*
X147947855Y-103662342D01*
X148028954Y-103646210D01*
X148098544Y-103652437D01*
X148153722Y-103695299D01*
X148176967Y-103761189D01*
X148160900Y-103829186D01*
X148122037Y-103870928D01*
X148079713Y-103899208D01*
X148079707Y-103899213D01*
X147968213Y-104010707D01*
X147968210Y-104010711D01*
X147880609Y-104141814D01*
X147880602Y-104141827D01*
X147820264Y-104287498D01*
X147820261Y-104287510D01*
X147789500Y-104442153D01*
X147789500Y-104599846D01*
X147820261Y-104754489D01*
X147820264Y-104754501D01*
X147880602Y-104900172D01*
X147880609Y-104900185D01*
X147968210Y-105031288D01*
X147968213Y-105031292D01*
X148079707Y-105142786D01*
X148079711Y-105142789D01*
X148210814Y-105230390D01*
X148210827Y-105230397D01*
X148356498Y-105290735D01*
X148356503Y-105290737D01*
X148511153Y-105321499D01*
X148511156Y-105321500D01*
X148511158Y-105321500D01*
X148668844Y-105321500D01*
X148668845Y-105321499D01*
X148823497Y-105290737D01*
X148969179Y-105230394D01*
X149030823Y-105189205D01*
X149100875Y-105142398D01*
X149167553Y-105121520D01*
X149169766Y-105121500D01*
X149523281Y-105121500D01*
X149590320Y-105141185D01*
X149633765Y-105189205D01*
X149653947Y-105228814D01*
X149653948Y-105228815D01*
X149778890Y-105400786D01*
X149929213Y-105551109D01*
X150101179Y-105676048D01*
X150101181Y-105676049D01*
X150101184Y-105676051D01*
X150290588Y-105772557D01*
X150492757Y-105838246D01*
X150702713Y-105871500D01*
X150702714Y-105871500D01*
X150915286Y-105871500D01*
X150915287Y-105871500D01*
X151125243Y-105838246D01*
X151327412Y-105772557D01*
X151516816Y-105676051D01*
X151538789Y-105660086D01*
X151688786Y-105551109D01*
X151688788Y-105551106D01*
X151688792Y-105551104D01*
X151839104Y-105400792D01*
X151839106Y-105400788D01*
X151839109Y-105400786D01*
X151962902Y-105230397D01*
X151964051Y-105228816D01*
X152060557Y-105039412D01*
X152126246Y-104837243D01*
X152159500Y-104627287D01*
X152159500Y-104414713D01*
X152126246Y-104204757D01*
X152060557Y-104002588D01*
X151964051Y-103813184D01*
X151964049Y-103813181D01*
X151964048Y-103813179D01*
X151839109Y-103641213D01*
X151688786Y-103490890D01*
X151516820Y-103365951D01*
X151514533Y-103364786D01*
X151508054Y-103361485D01*
X151457259Y-103313512D01*
X151440463Y-103245692D01*
X151462999Y-103179556D01*
X151508054Y-103140515D01*
X151516816Y-103136051D01*
X151586394Y-103085500D01*
X151688786Y-103011109D01*
X151688788Y-103011106D01*
X151688792Y-103011104D01*
X151839104Y-102860792D01*
X151839106Y-102860788D01*
X151839109Y-102860786D01*
X151964048Y-102688820D01*
X151964047Y-102688820D01*
X151964051Y-102688816D01*
X152060557Y-102499412D01*
X152126246Y-102297243D01*
X152159500Y-102087287D01*
X152159500Y-101874713D01*
X152126246Y-101664757D01*
X152060557Y-101462588D01*
X151964051Y-101273184D01*
X151964049Y-101273181D01*
X151964048Y-101273179D01*
X151839109Y-101101213D01*
X151688786Y-100950890D01*
X151516820Y-100825951D01*
X151516115Y-100825591D01*
X151508054Y-100821485D01*
X151457259Y-100773512D01*
X151440463Y-100705692D01*
X151462999Y-100639556D01*
X151508054Y-100600515D01*
X151516816Y-100596051D01*
X151591900Y-100541500D01*
X151688786Y-100471109D01*
X151688788Y-100471106D01*
X151688792Y-100471104D01*
X151839104Y-100320792D01*
X151839106Y-100320788D01*
X151839109Y-100320786D01*
X151957142Y-100158326D01*
X151964051Y-100148816D01*
X152060557Y-99959412D01*
X152126246Y-99757243D01*
X152159500Y-99547287D01*
X152159500Y-99334713D01*
X152126246Y-99124757D01*
X152060557Y-98922588D01*
X151964051Y-98733184D01*
X151964049Y-98733181D01*
X151964048Y-98733179D01*
X151839109Y-98561213D01*
X151688786Y-98410890D01*
X151516820Y-98285951D01*
X151516115Y-98285591D01*
X151508054Y-98281485D01*
X151457259Y-98233512D01*
X151440463Y-98165692D01*
X151462999Y-98099556D01*
X151508054Y-98060515D01*
X151516816Y-98056051D01*
X151579540Y-98010480D01*
X151688786Y-97931109D01*
X151688788Y-97931106D01*
X151688792Y-97931104D01*
X151839104Y-97780792D01*
X151839106Y-97780788D01*
X151839109Y-97780786D01*
X151964048Y-97608820D01*
X151964047Y-97608820D01*
X151964051Y-97608816D01*
X152060557Y-97419412D01*
X152126246Y-97217243D01*
X152159500Y-97007287D01*
X152159500Y-96794713D01*
X152126246Y-96584757D01*
X152060557Y-96382588D01*
X151964051Y-96193184D01*
X151964049Y-96193181D01*
X151964048Y-96193179D01*
X151839109Y-96021213D01*
X151725181Y-95907285D01*
X151691696Y-95845962D01*
X151696680Y-95776270D01*
X151738552Y-95720337D01*
X151769529Y-95703422D01*
X151901086Y-95654354D01*
X151901093Y-95654350D01*
X152016187Y-95568190D01*
X152016190Y-95568187D01*
X152102350Y-95453093D01*
X152102354Y-95453086D01*
X152152596Y-95318379D01*
X152152598Y-95318372D01*
X152158999Y-95258844D01*
X152159000Y-95258827D01*
X152159000Y-94611000D01*
X151242012Y-94611000D01*
X151274925Y-94553993D01*
X151309000Y-94426826D01*
X151309000Y-94295174D01*
X151274925Y-94168007D01*
X151242012Y-94111000D01*
X152159000Y-94111000D01*
X152159000Y-93463172D01*
X152158999Y-93463155D01*
X152152598Y-93403627D01*
X152152596Y-93403620D01*
X152102354Y-93268913D01*
X152102350Y-93268906D01*
X152016190Y-93153812D01*
X152016187Y-93153809D01*
X151901093Y-93067649D01*
X151901086Y-93067645D01*
X151766379Y-93017403D01*
X151766372Y-93017401D01*
X151706844Y-93011000D01*
X151059000Y-93011000D01*
X151059000Y-93927988D01*
X151001993Y-93895075D01*
X150874826Y-93861000D01*
X150743174Y-93861000D01*
X150616007Y-93895075D01*
X150559000Y-93927988D01*
X150559000Y-93011000D01*
X149911155Y-93011000D01*
X149851627Y-93017401D01*
X149851620Y-93017403D01*
X149716913Y-93067645D01*
X149716906Y-93067649D01*
X149601812Y-93153809D01*
X149601809Y-93153812D01*
X149515649Y-93268906D01*
X149515645Y-93268913D01*
X149465403Y-93403620D01*
X149465401Y-93403627D01*
X149459000Y-93463155D01*
X149459000Y-94111000D01*
X150375988Y-94111000D01*
X150343075Y-94168007D01*
X150309000Y-94295174D01*
X150309000Y-94426826D01*
X150343075Y-94553993D01*
X150375988Y-94611000D01*
X149459000Y-94611000D01*
X149459000Y-95258844D01*
X149465401Y-95318372D01*
X149465403Y-95318379D01*
X149515645Y-95453086D01*
X149515649Y-95453093D01*
X149601809Y-95568187D01*
X149601812Y-95568190D01*
X149716906Y-95654350D01*
X149716913Y-95654354D01*
X149848470Y-95703422D01*
X149904404Y-95745293D01*
X149920326Y-95787983D01*
X149928821Y-95810758D01*
X149913969Y-95879031D01*
X149913241Y-95880003D01*
X149892819Y-95907285D01*
X149789921Y-96010182D01*
X149728601Y-96043666D01*
X149702242Y-96046500D01*
X147511257Y-96046500D01*
X147444218Y-96026815D01*
X147438900Y-96023075D01*
X147437844Y-96022466D01*
X147437841Y-96022464D01*
X147416324Y-96013551D01*
X147400646Y-96007057D01*
X147346243Y-95963215D01*
X147324179Y-95896921D01*
X147341459Y-95829222D01*
X147360410Y-95804825D01*
X147485520Y-95679716D01*
X147564577Y-95542784D01*
X147605501Y-95390057D01*
X147605501Y-95384352D01*
X147625186Y-95317313D01*
X147631115Y-95308878D01*
X147659536Y-95271841D01*
X147720044Y-95125762D01*
X147735500Y-95008361D01*
X147735499Y-94729640D01*
X147735499Y-94729636D01*
X147720046Y-94612246D01*
X147720044Y-94612241D01*
X147720044Y-94612238D01*
X147659536Y-94466159D01*
X147563282Y-94340718D01*
X147437841Y-94244464D01*
X147401415Y-94229376D01*
X147291762Y-94183956D01*
X147291760Y-94183955D01*
X147174361Y-94168500D01*
X146835636Y-94168500D01*
X146718234Y-94183955D01*
X146717083Y-94184264D01*
X146715891Y-94184264D01*
X146710179Y-94185016D01*
X146710080Y-94184264D01*
X146659919Y-94184264D01*
X146659820Y-94185017D01*
X146654107Y-94184264D01*
X146652917Y-94184265D01*
X146651765Y-94183956D01*
X146534361Y-94168500D01*
X146195636Y-94168500D01*
X146078246Y-94183953D01*
X146078241Y-94183955D01*
X146078238Y-94183955D01*
X146078238Y-94183956D01*
X146075679Y-94185016D01*
X145986613Y-94221908D01*
X145917143Y-94229376D01*
X145870270Y-94210448D01*
X145794185Y-94159609D01*
X145794172Y-94159602D01*
X145648501Y-94099264D01*
X145648489Y-94099261D01*
X145493845Y-94068500D01*
X145493842Y-94068500D01*
X145336158Y-94068500D01*
X145336155Y-94068500D01*
X145181510Y-94099261D01*
X145181498Y-94099264D01*
X145035827Y-94159602D01*
X145035814Y-94159609D01*
X144904125Y-94247602D01*
X144837447Y-94268480D01*
X144835234Y-94268500D01*
X142209389Y-94268500D01*
X142142350Y-94248815D01*
X142096595Y-94196011D01*
X142094828Y-94191952D01*
X142060397Y-94108827D01*
X142060390Y-94108814D01*
X141972789Y-93977711D01*
X141972786Y-93977707D01*
X141861292Y-93866213D01*
X141861288Y-93866210D01*
X141730185Y-93778609D01*
X141730172Y-93778602D01*
X141584501Y-93718264D01*
X141584489Y-93718261D01*
X141429845Y-93687500D01*
X141429842Y-93687500D01*
X141272158Y-93687500D01*
X141272155Y-93687500D01*
X141117510Y-93718261D01*
X141117498Y-93718264D01*
X140971827Y-93778602D01*
X140971814Y-93778609D01*
X140938901Y-93800602D01*
X140920854Y-93806252D01*
X140904945Y-93816477D01*
X140873985Y-93820928D01*
X140872224Y-93821480D01*
X140870010Y-93821500D01*
X140723354Y-93821500D01*
X140656315Y-93801815D01*
X140647881Y-93795886D01*
X140610841Y-93767464D01*
X140610838Y-93767463D01*
X140610836Y-93767461D01*
X140464765Y-93706957D01*
X140464760Y-93706955D01*
X140347361Y-93691500D01*
X140068636Y-93691500D01*
X139951246Y-93706953D01*
X139951237Y-93706956D01*
X139805160Y-93767463D01*
X139679718Y-93863718D01*
X139583463Y-93989160D01*
X139522956Y-94135237D01*
X139522955Y-94135239D01*
X139507500Y-94252638D01*
X139507500Y-94591363D01*
X139522955Y-94708763D01*
X139523263Y-94709912D01*
X139523263Y-94711101D01*
X139524016Y-94716821D01*
X139523263Y-94716920D01*
X139523265Y-94767081D01*
X139524017Y-94767180D01*
X139523265Y-94772884D01*
X139523266Y-94774079D01*
X139522956Y-94775234D01*
X139507500Y-94892638D01*
X139507500Y-95231363D01*
X139522953Y-95348753D01*
X139522957Y-95348765D01*
X139583461Y-95494836D01*
X139583462Y-95494837D01*
X139583464Y-95494841D01*
X139605875Y-95524048D01*
X139631070Y-95589215D01*
X139631500Y-95599534D01*
X139631500Y-96456492D01*
X139622062Y-96503942D01*
X139620992Y-96506524D01*
X139620990Y-96506529D01*
X139606501Y-96616589D01*
X139606500Y-96616605D01*
X139606500Y-97191500D01*
X139586815Y-97258539D01*
X139534011Y-97304294D01*
X139482500Y-97315500D01*
X138907596Y-97315500D01*
X138797536Y-97329988D01*
X138797527Y-97329991D01*
X138660574Y-97386719D01*
X138660571Y-97386720D01*
X138660571Y-97386721D01*
X138542964Y-97476964D01*
X138487526Y-97549213D01*
X138452719Y-97594574D01*
X138395991Y-97731527D01*
X138395990Y-97731529D01*
X138381500Y-97841598D01*
X138381500Y-98040403D01*
X138395989Y-98150468D01*
X138398094Y-98158322D01*
X138394814Y-98159200D01*
X138400581Y-98213073D01*
X138397517Y-98223522D01*
X138398095Y-98223677D01*
X138395990Y-98231529D01*
X138381500Y-98341598D01*
X138381500Y-98540403D01*
X138395989Y-98650468D01*
X138398094Y-98658322D01*
X138395010Y-98659148D01*
X138400849Y-98713737D01*
X138399975Y-98718113D01*
X138394548Y-98742960D01*
X138380182Y-98769215D01*
X138368076Y-98796583D01*
X138363591Y-98799541D01*
X138361012Y-98804255D01*
X138334732Y-98818575D01*
X138309751Y-98835053D01*
X138302501Y-98836139D01*
X138299660Y-98837688D01*
X138294607Y-98837322D01*
X138273404Y-98840500D01*
X136637396Y-98840500D01*
X136570357Y-98820815D01*
X136524602Y-98768011D01*
X136514658Y-98698853D01*
X136534294Y-98647609D01*
X136599390Y-98550185D01*
X136599390Y-98550184D01*
X136599394Y-98550179D01*
X136602434Y-98542841D01*
X136640447Y-98451067D01*
X136659737Y-98404497D01*
X136690500Y-98249842D01*
X136690500Y-98092158D01*
X136690500Y-98092155D01*
X136690499Y-98092153D01*
X136684206Y-98060516D01*
X136659737Y-97937503D01*
X136659735Y-97937498D01*
X136599397Y-97791827D01*
X136599390Y-97791814D01*
X136511789Y-97660711D01*
X136511786Y-97660707D01*
X136400292Y-97549213D01*
X136400288Y-97549210D01*
X136269185Y-97461609D01*
X136269172Y-97461602D01*
X136123501Y-97401264D01*
X136123489Y-97401261D01*
X135968845Y-97370500D01*
X135968842Y-97370500D01*
X135811158Y-97370500D01*
X135811155Y-97370500D01*
X135718858Y-97388859D01*
X135649267Y-97382632D01*
X135594089Y-97339769D01*
X135571728Y-97283425D01*
X135558557Y-97183372D01*
X135558555Y-97183366D01*
X135498100Y-97037414D01*
X135401924Y-96912075D01*
X135276586Y-96815899D01*
X135130631Y-96755444D01*
X135074000Y-96747987D01*
X135074000Y-97255500D01*
X135071449Y-97264185D01*
X135072738Y-97273147D01*
X135061759Y-97297187D01*
X135054315Y-97322539D01*
X135047474Y-97328466D01*
X135043713Y-97336703D01*
X135021478Y-97350992D01*
X135001511Y-97368294D01*
X134990996Y-97370581D01*
X134984935Y-97374477D01*
X134950000Y-97379500D01*
X134798000Y-97379500D01*
X134730961Y-97359815D01*
X134685206Y-97307011D01*
X134674000Y-97255500D01*
X134674000Y-96747987D01*
X134617368Y-96755444D01*
X134471413Y-96815899D01*
X134346075Y-96912075D01*
X134249900Y-97037412D01*
X134226561Y-97093759D01*
X134182720Y-97148162D01*
X134116426Y-97170227D01*
X134048727Y-97152948D01*
X134001116Y-97101811D01*
X133997439Y-97093759D01*
X133974099Y-97037412D01*
X133877924Y-96912075D01*
X133752586Y-96815899D01*
X133606631Y-96755444D01*
X133550000Y-96747987D01*
X133550000Y-97255500D01*
X133547449Y-97264185D01*
X133548738Y-97273147D01*
X133537759Y-97297187D01*
X133530315Y-97322539D01*
X133523474Y-97328466D01*
X133519713Y-97336703D01*
X133497478Y-97350992D01*
X133477511Y-97368294D01*
X133466996Y-97370581D01*
X133460935Y-97374477D01*
X133426000Y-97379500D01*
X133274000Y-97379500D01*
X133206961Y-97359815D01*
X133161206Y-97307011D01*
X133150000Y-97255500D01*
X133150000Y-96747987D01*
X133093368Y-96755444D01*
X132947413Y-96815899D01*
X132822075Y-96912075D01*
X132725900Y-97037412D01*
X132702561Y-97093759D01*
X132658720Y-97148162D01*
X132592426Y-97170227D01*
X132524727Y-97152948D01*
X132477116Y-97101811D01*
X132473439Y-97093759D01*
X132450099Y-97037412D01*
X132353924Y-96912075D01*
X132228586Y-96815899D01*
X132082631Y-96755444D01*
X132026000Y-96747987D01*
X132026000Y-97255500D01*
X132023449Y-97264185D01*
X132024738Y-97273147D01*
X132013759Y-97297187D01*
X132006315Y-97322539D01*
X131999474Y-97328466D01*
X131995713Y-97336703D01*
X131973478Y-97350992D01*
X131953511Y-97368294D01*
X131942996Y-97370581D01*
X131936935Y-97374477D01*
X131902000Y-97379500D01*
X131750000Y-97379500D01*
X131682961Y-97359815D01*
X131637206Y-97307011D01*
X131626000Y-97255500D01*
X131626000Y-96747987D01*
X131569368Y-96755444D01*
X131423413Y-96815899D01*
X131298075Y-96912075D01*
X131201900Y-97037412D01*
X131178561Y-97093759D01*
X131134720Y-97148162D01*
X131068426Y-97170227D01*
X131000727Y-97152948D01*
X130953116Y-97101811D01*
X130949439Y-97093759D01*
X130926099Y-97037412D01*
X130829924Y-96912075D01*
X130704586Y-96815899D01*
X130558631Y-96755444D01*
X130502000Y-96747987D01*
X130502000Y-97255500D01*
X130499449Y-97264185D01*
X130500738Y-97273147D01*
X130489759Y-97297187D01*
X130482315Y-97322539D01*
X130475474Y-97328466D01*
X130471713Y-97336703D01*
X130449478Y-97350992D01*
X130429511Y-97368294D01*
X130418996Y-97370581D01*
X130412935Y-97374477D01*
X130378000Y-97379500D01*
X130226000Y-97379500D01*
X130158961Y-97359815D01*
X130113206Y-97307011D01*
X130102000Y-97255500D01*
X130102000Y-96747987D01*
X130045368Y-96755444D01*
X129899413Y-96815899D01*
X129774075Y-96912075D01*
X129677899Y-97037413D01*
X129617445Y-97183365D01*
X129617444Y-97183369D01*
X129606038Y-97270000D01*
X129775568Y-97270000D01*
X129797146Y-97276336D01*
X129819570Y-97278070D01*
X129830023Y-97285990D01*
X129842607Y-97289685D01*
X129857334Y-97306681D01*
X129875261Y-97320263D01*
X129879773Y-97332577D01*
X129888362Y-97342489D01*
X129891562Y-97364748D01*
X129899301Y-97385866D01*
X129896439Y-97398665D01*
X129898306Y-97411647D01*
X129888962Y-97432105D01*
X129884056Y-97454053D01*
X129873162Y-97466702D01*
X129869281Y-97475203D01*
X129862743Y-97482185D01*
X129857219Y-97487645D01*
X129773718Y-97551718D01*
X129715016Y-97628219D01*
X129708982Y-97634185D01*
X129685392Y-97646889D01*
X129663755Y-97662689D01*
X129652375Y-97664672D01*
X129647467Y-97667316D01*
X129640359Y-97666766D01*
X129621807Y-97670000D01*
X129606041Y-97670000D01*
X129591807Y-97686229D01*
X129589917Y-97698352D01*
X129543536Y-97750607D01*
X129477745Y-97769500D01*
X129090351Y-97769500D01*
X129088148Y-97768853D01*
X129085924Y-97769421D01*
X129054778Y-97759054D01*
X129023312Y-97749815D01*
X129021809Y-97748081D01*
X129019630Y-97747356D01*
X128999030Y-97721792D01*
X128977557Y-97697011D01*
X128976780Y-97694181D01*
X128975790Y-97692952D01*
X128967061Y-97658754D01*
X128966154Y-97650315D01*
X128962091Y-97612517D01*
X128962090Y-97612514D01*
X128961632Y-97608254D01*
X128961632Y-97581745D01*
X128962089Y-97577486D01*
X128962091Y-97577483D01*
X128968500Y-97517873D01*
X128968499Y-96822128D01*
X128964067Y-96780898D01*
X128964068Y-96754393D01*
X128967999Y-96717833D01*
X128968000Y-96717819D01*
X128968000Y-96620000D01*
X128967948Y-96619948D01*
X128901085Y-96600315D01*
X128868859Y-96570313D01*
X128825546Y-96512454D01*
X128750791Y-96456492D01*
X128710335Y-96426206D01*
X128710328Y-96426202D01*
X128575482Y-96375908D01*
X128575483Y-96375908D01*
X128515883Y-96369501D01*
X128515881Y-96369500D01*
X128515873Y-96369500D01*
X128515865Y-96369500D01*
X126970129Y-96369500D01*
X126970123Y-96369501D01*
X126910516Y-96375908D01*
X126873942Y-96389550D01*
X126804250Y-96394534D01*
X126742929Y-96361049D01*
X126713561Y-96331681D01*
X126680076Y-96270358D01*
X126685060Y-96200666D01*
X126726932Y-96144733D01*
X126792396Y-96120316D01*
X126801242Y-96120000D01*
X128968000Y-96120000D01*
X128968000Y-96022172D01*
X128967999Y-96022155D01*
X128961598Y-95962627D01*
X128961596Y-95962620D01*
X128911354Y-95827913D01*
X128911350Y-95827906D01*
X128825190Y-95712812D01*
X128825187Y-95712809D01*
X128710093Y-95626649D01*
X128710086Y-95626645D01*
X128575379Y-95576403D01*
X128575372Y-95576401D01*
X128515844Y-95570000D01*
X128422924Y-95570000D01*
X128355885Y-95550315D01*
X128355531Y-95550000D01*
X127544988Y-95550000D01*
X127562205Y-95540060D01*
X127618060Y-95484205D01*
X127657556Y-95415796D01*
X127678000Y-95339496D01*
X127678000Y-95260504D01*
X127657556Y-95184204D01*
X127618060Y-95115795D01*
X127562205Y-95059940D01*
X127544988Y-95050000D01*
X128347862Y-95050000D01*
X128339569Y-95008309D01*
X128339569Y-95008307D01*
X128264192Y-94826328D01*
X128264185Y-94826315D01*
X128154751Y-94662537D01*
X128154748Y-94662533D01*
X128015466Y-94523251D01*
X128015462Y-94523248D01*
X127851684Y-94413814D01*
X127851671Y-94413807D01*
X127669693Y-94338430D01*
X127669681Y-94338427D01*
X127476495Y-94300000D01*
X127078000Y-94300000D01*
X127078000Y-95000000D01*
X126578000Y-95000000D01*
X126578000Y-94300000D01*
X126179504Y-94300000D01*
X125986318Y-94338427D01*
X125986306Y-94338430D01*
X125804328Y-94413807D01*
X125804315Y-94413814D01*
X125640537Y-94523248D01*
X125640533Y-94523251D01*
X125501251Y-94662533D01*
X125501248Y-94662537D01*
X125391814Y-94826315D01*
X125391807Y-94826328D01*
X125316430Y-95008307D01*
X125316430Y-95008309D01*
X125308138Y-95050000D01*
X126111012Y-95050000D01*
X126093795Y-95059940D01*
X126037940Y-95115795D01*
X125998444Y-95184204D01*
X125978000Y-95260504D01*
X125978000Y-95339496D01*
X125998444Y-95415796D01*
X126037940Y-95484205D01*
X126093795Y-95540060D01*
X126111012Y-95550000D01*
X125308138Y-95550000D01*
X125316430Y-95591690D01*
X125316430Y-95591692D01*
X125391807Y-95773671D01*
X125391814Y-95773684D01*
X125501248Y-95937462D01*
X125501251Y-95937466D01*
X125640533Y-96076748D01*
X125640537Y-96076751D01*
X125809387Y-96189574D01*
X125808430Y-96191005D01*
X125852425Y-96234211D01*
X125867895Y-96302346D01*
X125844072Y-96368029D01*
X125842309Y-96370094D01*
X125842432Y-96370189D01*
X125837485Y-96376635D01*
X125761719Y-96507863D01*
X125731687Y-96619948D01*
X125722500Y-96654234D01*
X125722500Y-96805766D01*
X125742109Y-96878950D01*
X125761719Y-96952136D01*
X125793561Y-97007287D01*
X125837485Y-97083365D01*
X125837487Y-97083367D01*
X125856765Y-97102645D01*
X125890250Y-97163968D01*
X125885266Y-97233660D01*
X125856765Y-97278007D01*
X125141481Y-97993290D01*
X125141475Y-97993298D01*
X125098422Y-98067870D01*
X125098422Y-98067871D01*
X125062423Y-98130222D01*
X125062423Y-98130223D01*
X125021499Y-98282951D01*
X125021499Y-98282953D01*
X125021499Y-98451054D01*
X125021500Y-98451067D01*
X125021500Y-99115234D01*
X125001815Y-99182273D01*
X125000602Y-99184125D01*
X124912609Y-99315814D01*
X124912602Y-99315827D01*
X124852264Y-99461498D01*
X124852261Y-99461510D01*
X124821500Y-99616153D01*
X121709300Y-99616153D01*
X121709300Y-96303413D01*
X121728985Y-96236374D01*
X121781789Y-96190619D01*
X121850947Y-96180675D01*
X121880753Y-96188852D01*
X122056310Y-96261570D01*
X122056318Y-96261572D01*
X122249504Y-96299999D01*
X122249508Y-96300000D01*
X122398000Y-96300000D01*
X122398000Y-95600000D01*
X122898000Y-95600000D01*
X122898000Y-96300000D01*
X123046492Y-96300000D01*
X123046495Y-96299999D01*
X123239681Y-96261572D01*
X123239693Y-96261569D01*
X123421671Y-96186192D01*
X123421684Y-96186185D01*
X123585462Y-96076751D01*
X123585466Y-96076748D01*
X123724748Y-95937466D01*
X123724751Y-95937462D01*
X123834185Y-95773684D01*
X123834192Y-95773671D01*
X123909569Y-95591692D01*
X123909569Y-95591690D01*
X123917862Y-95550000D01*
X123114988Y-95550000D01*
X123132205Y-95540060D01*
X123188060Y-95484205D01*
X123227556Y-95415796D01*
X123248000Y-95339496D01*
X123248000Y-95260504D01*
X123227556Y-95184204D01*
X123188060Y-95115795D01*
X123132205Y-95059940D01*
X123114988Y-95050000D01*
X123917862Y-95050000D01*
X123909569Y-95008309D01*
X123909569Y-95008307D01*
X123834192Y-94826328D01*
X123834185Y-94826315D01*
X123724751Y-94662537D01*
X123724748Y-94662533D01*
X123585466Y-94523251D01*
X123585462Y-94523248D01*
X123421684Y-94413814D01*
X123421671Y-94413807D01*
X123239693Y-94338430D01*
X123239681Y-94338427D01*
X123046495Y-94300000D01*
X122898000Y-94300000D01*
X122898000Y-95000000D01*
X122398000Y-95000000D01*
X122398000Y-94300000D01*
X122249504Y-94300000D01*
X122056318Y-94338427D01*
X122056306Y-94338430D01*
X121880752Y-94411147D01*
X121811283Y-94418616D01*
X121748804Y-94387341D01*
X121713152Y-94327252D01*
X121709300Y-94296586D01*
X121709300Y-92001000D01*
X121728985Y-91933961D01*
X121781789Y-91888206D01*
X121833300Y-91877000D01*
X152526883Y-91877000D01*
X152593922Y-91896685D01*
G37*
%TD.AperFunction*%
%TD*%
M02*
